<svg width="1024" height="1024" viewBox="0 0 1024 1024" fill="none" xmlns="http://www.w3.org/2000/svg">
<g clip-path="url(#clip0_2222_6384)">
<rect width="1024" height="1024" rx="250" fill="white"/>
<path d="M221.293 472.074C210.909 472.074 205.717 465.915 205.717 453.598V346.176H240.951V379.799H237.514V453.598C237.514 459.47 236.081 464.018 233.217 467.24C230.424 470.463 226.449 472.074 221.293 472.074ZM280.59 459.506C276.938 459.506 273.786 458.467 271.137 456.391C268.487 454.242 266.124 450.482 264.047 445.111L225.16 346.176H205.717C205.717 339.014 207.615 333.393 211.41 329.311C215.206 325.229 220.398 323.188 226.986 323.188C232.644 323.188 237.406 324.799 241.273 328.021C245.212 331.173 248.614 336.579 251.479 344.242L279.945 417.504H281.127L309.486 344.135C312.423 336.329 315.788 330.886 319.584 327.807C323.38 324.727 328.249 323.188 334.193 323.188C340.854 323.188 346.01 325.193 349.662 329.203C353.314 333.214 355.141 338.871 355.141 346.176H335.805L296.918 445.111C294.841 450.626 292.478 454.421 289.828 456.498C287.25 458.503 284.171 459.506 280.59 459.506ZM338.92 472.074C328.607 472.074 323.451 465.915 323.451 453.598V379.799H320.014V346.176H355.141V453.598C355.141 459.47 353.744 464.018 350.951 467.24C348.158 470.463 344.148 472.074 338.92 472.074ZM410.248 435.121C410.248 439.132 411.716 442.426 414.652 445.004C417.66 447.51 421.492 448.764 426.146 448.764C429.512 448.764 432.556 448.083 435.277 446.723C437.999 445.362 440.147 443.5 441.723 441.137C443.37 438.773 444.193 436.16 444.193 433.295V422.123H426.576C421.563 422.123 417.589 423.269 414.652 425.561C411.716 427.852 410.248 431.039 410.248 435.121ZM444.086 456.928C442.296 460.15 439.896 462.908 436.889 465.199C433.952 467.491 430.515 469.245 426.576 470.463C422.709 471.68 418.484 472.289 413.9 472.289C402.729 472.289 393.669 469.102 386.723 462.729C379.776 456.355 376.303 447.976 376.303 437.592C376.303 426.85 380.062 418.435 387.582 412.348C395.173 406.189 405.593 403.074 418.842 403.002H444.193V394.73C444.193 389.861 442.689 386.173 439.682 383.666C436.674 381.16 432.413 379.906 426.898 379.906C422.96 379.906 419.415 380.622 416.264 382.055C413.184 383.487 410.105 385.313 407.025 387.533C405.307 388.679 403.48 389.574 401.547 390.219C399.613 390.792 397.286 391.078 394.564 391.078C390.912 391.078 388.012 389.968 385.863 387.748C383.715 385.528 382.641 382.771 382.641 379.477C382.641 375.967 383.858 372.566 386.293 369.271C388.799 365.906 392.702 362.969 398.002 360.463C401.798 358.601 406.273 357.169 411.43 356.166C416.586 355.092 422.494 354.555 429.154 354.555C444.981 354.555 457.191 358.1 465.785 365.189C474.379 372.208 478.676 382.198 478.676 395.16V453.812C478.676 459.685 477.208 464.197 474.271 467.348C471.407 470.499 467.289 472.074 461.918 472.074C457.549 472.074 453.897 470.964 450.961 468.744C448.096 466.524 446.342 463.337 445.697 459.184V456.928C445.626 456.928 445.339 456.928 444.838 456.928C444.337 456.928 444.086 456.928 444.086 456.928ZM608.549 453.275C608.549 465.808 602.784 472.074 591.254 472.074C579.724 472.074 573.959 465.772 573.959 453.168V404.184C573.959 397.595 572.383 392.439 569.232 388.715C566.153 384.991 561.785 383.129 556.127 383.129C552.117 383.129 548.607 384.132 545.6 386.137C542.592 388.07 540.264 390.863 538.617 394.516C536.97 398.096 536.146 402.429 536.146 407.514V453.168C536.146 465.772 530.417 472.074 518.959 472.074C513.373 472.074 509.076 470.463 506.068 467.24C503.132 463.946 501.664 459.255 501.664 453.168V373.568C501.664 367.911 503.168 363.471 506.176 360.248C509.184 356.954 513.301 355.307 518.529 355.307C529.128 355.307 534.678 360.857 535.18 371.957V376.146H536.898C538.331 371.778 540.658 367.982 543.881 364.76C547.104 361.537 551.007 359.031 555.59 357.24C560.173 355.45 565.186 354.555 570.629 354.555C582.732 354.555 592.077 358.1 598.666 365.189C605.255 372.208 608.549 382.198 608.549 395.16V453.275ZM739.389 453.275C739.389 465.808 733.624 472.074 722.094 472.074C710.564 472.074 704.799 465.772 704.799 453.168V404.184C704.799 397.595 703.223 392.439 700.072 388.715C696.993 384.991 692.624 383.129 686.967 383.129C682.956 383.129 679.447 384.132 676.439 386.137C673.432 388.07 671.104 390.863 669.457 394.516C667.81 398.096 666.986 402.429 666.986 407.514V453.168C666.986 465.772 661.257 472.074 649.799 472.074C644.213 472.074 639.916 470.463 636.908 467.24C633.972 463.946 632.504 459.255 632.504 453.168V373.568C632.504 367.911 634.008 363.471 637.016 360.248C640.023 356.954 644.141 355.307 649.369 355.307C659.968 355.307 665.518 360.857 666.02 371.957V376.146H667.738C669.171 371.778 671.498 367.982 674.721 364.76C677.943 361.537 681.846 359.031 686.43 357.24C691.013 355.45 696.026 354.555 701.469 354.555C713.572 354.555 722.917 358.1 729.506 365.189C736.094 372.208 739.389 382.198 739.389 395.16V453.275Z" fill="#E51E5A"/>
<path d="M307.66 663.859C301.286 663.859 295.414 660.171 290.043 652.795L254.379 603.703L240.844 617.453V644.953C240.844 651.04 239.34 655.767 236.332 659.133C233.324 662.427 229.027 664.074 223.441 664.074C217.712 664.074 213.236 662.391 210.014 659.025C206.863 655.66 205.287 650.969 205.287 644.953V534.416C205.287 528.257 206.827 523.531 209.906 520.236C212.986 516.942 217.354 515.295 223.012 515.295C228.669 515.295 233.038 516.978 236.117 520.344C239.268 523.638 240.844 528.329 240.844 534.416V576.633H242.777L292.084 523.029C294.519 520.38 296.811 518.482 298.959 517.336C301.179 516.118 303.542 515.51 306.049 515.51C310.489 515.51 314.177 517.014 317.113 520.021C320.121 523.029 321.625 526.717 321.625 531.086C321.625 533.234 321.124 535.275 320.121 537.209C319.19 539.143 317.543 541.398 315.18 543.977L280.697 581.252L317.436 630.881C320.3 634.748 322.234 637.792 323.236 640.012C324.239 642.232 324.74 644.595 324.74 647.102C324.74 651.971 323.129 655.982 319.906 659.133C316.755 662.284 312.673 663.859 307.66 663.859ZM370.502 627.121C370.502 631.132 371.97 634.426 374.906 637.004C377.914 639.51 381.745 640.764 386.4 640.764C389.766 640.764 392.81 640.083 395.531 638.723C398.253 637.362 400.401 635.5 401.977 633.137C403.624 630.773 404.447 628.16 404.447 625.295V614.123H386.83C381.817 614.123 377.842 615.269 374.906 617.561C371.97 619.852 370.502 623.039 370.502 627.121ZM404.34 648.928C402.549 652.15 400.15 654.908 397.143 657.199C394.206 659.491 390.769 661.245 386.83 662.463C382.963 663.68 378.738 664.289 374.154 664.289C362.982 664.289 353.923 661.102 346.977 654.729C340.03 648.355 336.557 639.976 336.557 629.592C336.557 618.85 340.316 610.435 347.836 604.348C355.427 598.189 365.847 595.074 379.096 595.002H404.447V586.73C404.447 581.861 402.943 578.173 399.936 575.666C396.928 573.16 392.667 571.906 387.152 571.906C383.214 571.906 379.669 572.622 376.518 574.055C373.438 575.487 370.359 577.313 367.279 579.533C365.561 580.679 363.734 581.574 361.801 582.219C359.867 582.792 357.54 583.078 354.818 583.078C351.166 583.078 348.266 581.968 346.117 579.748C343.969 577.528 342.895 574.771 342.895 571.477C342.895 567.967 344.112 564.566 346.547 561.271C349.053 557.906 352.956 554.969 358.256 552.463C362.051 550.601 366.527 549.169 371.684 548.166C376.84 547.092 382.748 546.555 389.408 546.555C405.235 546.555 417.445 550.1 426.039 557.189C434.633 564.208 438.93 574.198 438.93 587.16V645.812C438.93 651.685 437.462 656.197 434.525 659.348C431.661 662.499 427.543 664.074 422.172 664.074C417.803 664.074 414.151 662.964 411.215 660.744C408.35 658.524 406.596 655.337 405.951 651.184V648.928C405.88 648.928 405.593 648.928 405.092 648.928C404.59 648.928 404.34 648.928 404.34 648.928ZM496.723 645.168C496.723 651.184 495.183 655.839 492.104 659.133C489.096 662.427 484.763 664.074 479.105 664.074C473.448 664.074 469.223 662.427 466.43 659.133C463.637 655.839 462.24 651.184 462.24 645.168V566.213C462.24 560.126 463.673 555.471 466.537 552.248C469.473 548.954 473.699 547.307 479.213 547.307C484.226 547.307 488.129 548.667 490.922 551.389C493.715 554.11 495.29 558.085 495.648 563.312V564.924H497.26C498.549 560.985 500.303 557.655 502.523 554.934C504.743 552.141 507.357 550.064 510.365 548.703C513.373 547.271 516.703 546.555 520.355 546.555C525.082 546.555 528.806 547.844 531.527 550.422C534.392 553.072 535.824 556.796 535.824 561.594C535.824 563.957 535.466 566.034 534.75 567.824C534.034 569.543 532.995 570.975 531.635 572.121C530.346 573.195 528.699 574.055 526.693 574.699C524.76 575.272 522.504 575.594 519.926 575.666C514.77 575.809 510.437 576.883 506.928 578.889C503.49 580.822 500.912 583.651 499.193 587.375C497.546 591.027 496.723 595.611 496.723 601.125V645.168ZM544.74 612.082V599.406C544.74 588.592 546.96 579.175 551.4 571.154C555.912 563.062 562.214 556.76 570.307 552.248C578.399 547.736 587.816 545.48 598.559 545.48C608.728 545.48 617.68 547.665 625.414 552.033C633.22 556.33 639.343 562.238 643.783 569.758C648.223 577.206 650.443 585.692 650.443 595.217C650.443 601.734 649.154 606.353 646.576 609.074C644.07 611.724 639.701 613.049 633.471 613.049H579.867V617.238C579.939 624.042 582.123 629.52 586.42 633.674C590.717 637.827 596.732 639.904 604.467 639.904C606.544 639.904 608.441 639.797 610.16 639.582C611.951 639.367 613.562 639.045 614.994 638.615C616.498 638.114 617.895 637.577 619.184 637.004C620.473 636.431 621.654 635.715 622.729 634.855C625.378 633.208 627.527 631.919 629.174 630.988C630.821 629.986 632.969 629.484 635.619 629.484C639.128 629.484 641.921 630.559 643.998 632.707C646.146 634.784 647.221 637.648 647.221 641.301C647.221 644.38 646.29 647.245 644.428 649.895C642.637 652.473 640.131 654.8 636.908 656.877C632.969 659.67 627.992 661.854 621.977 663.43C615.961 665.005 609.301 665.793 601.996 665.793C584.307 665.793 570.342 661.031 560.102 651.506C549.861 641.981 544.74 628.84 544.74 612.082ZM579.867 593.283H617.895V592.961C617.895 586.372 616.212 581.109 612.846 577.17C609.48 573.231 604.968 571.262 599.311 571.262C593.223 571.262 588.461 573.267 585.023 577.277C581.586 581.216 579.867 586.444 579.867 592.961V593.283Z" fill="#999999"/>
<path d="M669.027 646.135C669.027 640.835 670.925 636.288 674.721 632.492C678.516 628.697 683.064 626.799 688.363 626.799C693.663 626.799 698.21 628.697 702.006 632.492C705.801 636.288 707.699 640.835 707.699 646.135C707.699 651.434 705.801 655.982 702.006 659.777C698.21 663.573 693.663 665.471 688.363 665.471C683.064 665.471 678.516 663.573 674.721 659.777C670.925 655.982 669.027 651.434 669.027 646.135Z" fill="#E51E5A"/>
<circle cx="689" cy="642" r="25" fill="#999999"/>
<rect x="802" y="327" width="32" height="340" rx="15" fill="url(#paint0_linear_2222_6384)"/>
<path d="M956.293 903.66C956.485 896.981 953.614 890.723 948.391 886.502L937.823 877.95C937.084 877.353 936.114 877.095 935.184 877.231C934.241 877.366 933.407 877.909 932.873 878.697L885.569 949.5L878.637 940.69C877.625 939.401 875.821 939.034 874.372 939.808L839.139 958.717C835.721 960.549 834.067 964.296 835.01 968.029C835.967 971.775 839.221 974.286 843.104 974.286H894.237C903.725 974.286 912.352 968.735 916.221 960.128L921.745 947.857C925.709 939.021 931.998 931.351 939.915 925.691L940.475 925.283L941.979 970.92C942.034 972.413 943.264 973.594 944.768 973.594C946.258 973.594 947.489 972.427 947.557 970.947L949.909 918.184C953.819 914.356 956.116 909.225 956.293 903.66ZM935.95 920.247C927.063 926.6 920.022 935.206 915.565 945.129L910.055 957.4C907.28 963.59 901.073 967.581 894.237 967.581H843.104C842.024 967.581 841.668 966.834 841.559 966.386C841.45 965.938 841.395 965.124 842.338 964.608L875.082 947.056L883.149 957.291C883.819 958.147 884.858 958.649 885.938 958.581C887.018 958.54 888.016 957.984 888.618 957.088L936.442 885.497L944.125 891.701C947.707 894.592 949.676 898.882 949.539 903.47C949.403 908.058 947.174 912.211 943.428 914.899L935.95 920.247Z" fill="#999999"/>
<g clip-path="url(#clip1_2222_6384)">
<path d="M1006.88 393.898C1004.05 380.442 1004.05 366.558 1006.88 353.102C1007.3 351.094 1006.55 349.025 1004.92 347.737C1003.24 346.384 1000.93 346.067 998.936 346.914L959.486 363.479C958.325 359.552 954.663 356.85 950.5 356.85C946.338 356.85 942.676 359.552 941.515 363.479L902.067 346.916C900.071 346.068 897.76 346.386 896.078 347.739C894.455 349.027 893.699 351.096 894.117 353.104C896.953 366.559 896.953 380.443 894.117 393.898C893.682 395.907 894.44 397.984 896.076 399.263C897.758 400.616 900.068 400.935 902.065 400.09L941.517 383.522C942.677 387.447 946.339 390.148 950.5 390.148C954.662 390.148 958.323 387.447 959.484 383.522L998.936 400.086C1000.93 400.931 1003.24 400.612 1004.92 399.259C1006.56 397.981 1007.32 395.905 1006.88 393.898ZM900.592 396.682C899.885 396.99 899.061 396.879 898.464 396.396C897.927 395.98 897.675 395.302 897.812 394.644C900.752 380.695 900.752 366.303 897.812 352.355C897.674 351.697 897.927 351.02 898.464 350.604C898.828 350.308 899.285 350.146 899.758 350.146C900.045 350.147 900.329 350.206 900.592 350.318L941.084 367.321V369.393L933.927 367.987C932.925 367.825 931.974 368.472 931.775 369.45C931.576 370.427 932.201 371.384 933.189 371.613L941.099 373.167V373.974L923.608 379.128C922.715 379.39 922.152 380.255 922.284 381.161C922.415 382.067 923.202 382.743 924.134 382.75C924.317 382.75 924.499 382.723 924.674 382.672L941.084 377.836V379.686L900.592 396.682ZM950.5 386.45C947.38 386.45 944.85 383.965 944.85 380.9V366.1C944.85 363.035 947.38 360.55 950.5 360.55C953.621 360.55 956.15 363.035 956.15 366.1V380.9C956.15 383.965 953.621 386.45 950.5 386.45ZM1003.19 394.646C1003.33 395.303 1003.08 395.98 1002.54 396.396C1001.95 396.881 1001.12 396.993 1000.41 396.682L959.917 379.679V377.829L976.326 382.665C976.502 382.718 976.684 382.747 976.867 382.75C977.802 382.75 978.595 382.077 978.731 381.168C978.866 380.26 978.303 379.391 977.407 379.128L959.917 373.974V373.167L967.827 371.613C968.815 371.384 969.44 370.427 969.241 369.45C969.042 368.472 968.09 367.825 967.089 367.987L959.932 369.393V367.321L1000.42 350.318C1001.13 350.011 1001.95 350.122 1002.55 350.604C1003.09 351.02 1003.34 351.697 1003.2 352.355C1000.26 366.303 1000.26 380.696 1003.19 394.646Z" fill="#999999"/>
<path fill-rule="evenodd" clip-rule="evenodd" d="M926.018 369.185C926.942 369.185 927.73 368.527 927.878 367.631C928.026 366.735 927.49 365.865 926.613 365.579L922.846 364.345C921.858 364.022 920.791 364.547 920.462 365.518C920.133 366.489 920.668 367.537 921.656 367.86L925.423 369.092C925.615 369.154 925.816 369.186 926.018 369.185Z" fill="#999999"/>
<path fill-rule="evenodd" clip-rule="evenodd" d="M978.155 364.343L974.389 365.577C973.4 365.9 972.866 366.949 973.195 367.919C973.523 368.89 974.591 369.415 975.579 369.092L979.346 367.86C980.334 367.537 980.868 366.489 980.54 365.518C980.211 364.547 979.143 364.022 978.155 364.345V364.343Z" fill="#999999"/>
</g>
<path d="M137.501 23.3109C139.073 23.3109 140.351 22.2727 140.351 20.9896C140.351 19.7065 139.073 18.6641 137.501 18.6641C135.928 18.6641 134.65 19.7065 134.65 20.9896C134.65 22.2727 135.928 23.3109 137.501 23.3109Z" fill="#7D7D7D"/>
<path d="M137.501 44.6859C139.073 44.6859 140.351 43.6435 140.351 42.3604C140.351 41.0773 139.073 40.0391 137.501 40.0391C135.928 40.0391 134.65 41.0773 134.65 42.3604C134.65 43.6435 135.928 44.6859 137.501 44.6859Z" fill="#7D7D7D"/>
<path d="M137.501 66.0609C139.073 66.0609 140.351 65.0227 140.351 63.7396C140.351 62.4565 139.073 61.4141 137.501 61.4141C135.928 61.4141 134.65 62.4565 134.65 63.7396C134.65 65.0227 135.928 66.0609 137.501 66.0609Z" fill="#7D7D7D"/>
<path d="M137.501 87.4359C139.073 87.4359 140.351 86.3977 140.351 85.1146C140.351 83.8315 139.073 82.7891 137.501 82.7891C135.928 82.7891 134.65 83.8315 134.65 85.1146C134.65 86.3977 135.928 87.4359 137.501 87.4359Z" fill="#7D7D7D"/>
<path d="M137.501 108.819C139.073 108.819 140.351 107.776 140.351 106.493C140.351 105.21 139.073 104.172 137.501 104.172C135.928 104.172 134.65 105.21 134.65 106.493C134.65 107.776 135.928 108.819 137.501 108.819Z" fill="#7D7D7D"/>
<path d="M137.501 130.194C139.073 130.194 140.351 129.156 140.351 127.873C140.351 126.589 139.073 125.547 137.501 125.547C135.928 125.547 134.65 126.589 134.65 127.873C134.65 129.156 135.928 130.194 137.501 130.194Z" fill="#7D7D7D"/>
<path d="M230.359 60.3678L214.381 33.9354L211.998 29.9935L207.233 22.1097L199.332 9.03939C195.49 2.07462 188.291 -0.0452433 187.59 -0.237196L163.774 -7.54932L155.494 -14.9837C155.485 -14.9917 155.474 -14.997 155.465 -15.0046C155.425 -15.0385 155.381 -15.0679 155.337 -15.0983C155.297 -15.1258 155.259 -15.1547 155.216 -15.1791C155.182 -15.1985 155.144 -15.2126 155.108 -15.2297C154.865 -15.3451 154.59 -15.4141 154.302 -15.4141H120.698C120.696 -15.4141 120.694 -15.4137 120.693 -15.4137C120.469 -15.4137 120.254 -15.3748 120.057 -15.3048C120.027 -15.2941 120.001 -15.2792 119.972 -15.2674C119.905 -15.2396 119.839 -15.2114 119.778 -15.1764C119.745 -15.1581 119.717 -15.136 119.686 -15.1155C119.633 -15.08 119.58 -15.0442 119.532 -15.0035C119.524 -14.9963 119.514 -14.9913 119.506 -14.9841L111.226 -7.54932L87.4098 -0.237577C86.7087 -0.045624 79.5098 2.07386 75.6671 9.03863L44.641 60.3678C44.2582 61.0012 44.5574 61.7682 45.3187 62.1045L82.3339 78.4545L80.6408 148.985C80.6301 149.429 80.8947 149.847 81.3447 150.097C81.4941 150.18 85.0824 152.157 91.766 154.525C91.9751 154.599 92.1926 154.634 92.4069 154.634C93.0291 154.634 93.6215 154.338 93.8848 153.843C94.2391 153.178 93.8652 152.404 93.0487 152.114C88.3373 150.445 85.2061 148.965 83.8785 148.299L85.5734 77.7053C85.5734 77.6996 85.5725 77.6946 85.5725 77.6893C85.5725 77.6863 85.5739 77.6828 85.5739 77.6798V40.5037C85.5739 39.7782 84.8527 39.1897 83.9635 39.1897C83.0742 39.1897 82.353 39.7782 82.353 40.5037V75.4746L48.2152 60.396L78.5678 10.1804C78.5766 10.166 78.585 10.1515 78.593 10.137C81.9362 4.05737 88.3784 2.26848 88.4372 2.25286C88.4624 2.24601 88.4877 2.23877 88.5129 2.23115L110.711 -4.58394C112.336 6.69749 125.732 18.9939 126.333 19.5385C126.639 19.8166 127.074 19.9746 127.531 19.9746C127.555 19.9746 127.58 19.9742 127.604 19.9735C128.087 19.9556 128.534 19.7617 128.822 19.4456L137.5 9.94165L146.177 19.446C146.465 19.7621 146.912 19.9556 147.395 19.9739C147.419 19.9746 147.444 19.975 147.468 19.975C147.924 19.975 148.36 19.817 148.666 19.5389C149.266 18.9939 162.663 6.69749 164.288 -4.58356L186.486 2.23153C186.511 2.23915 186.536 2.24639 186.562 2.25325C186.626 2.27 193.035 4.00672 196.406 10.1374C196.415 10.1519 196.423 10.1664 196.432 10.1804L204.345 23.2721L209.11 31.1559L211.493 35.0978L226.785 60.396L192.647 75.4746V40.5037C192.647 39.7782 191.926 39.1897 191.037 39.1897C190.148 39.1897 189.426 39.7782 189.426 40.5037V77.6802C189.426 77.6836 189.428 77.687 189.428 77.6897C189.428 77.695 189.427 77.7 189.427 77.7057L191.122 148.298C187.226 150.247 167.795 159.166 137.5 159.781C130.503 159.638 123.56 159.042 116.864 158.006C115.992 157.87 115.148 158.339 114.982 159.052C114.816 159.765 115.391 160.452 116.264 160.588C123.144 161.652 130.275 162.264 137.46 162.408C137.473 162.408 137.487 162.409 137.5 162.409C137.513 162.409 137.527 162.408 137.54 162.408C172.357 161.711 192.802 150.571 193.655 150.097C194.105 149.847 194.37 149.429 194.359 148.985L192.666 78.4545L229.682 62.1045C230.442 61.7686 230.742 61.0012 230.359 60.3678ZM122.172 -12.7861H152.826C152.858 -11.7883 152.748 -10.1513 152.043 -8.14346H122.955C122.248 -10.151 122.14 -11.7894 122.172 -12.7861ZM127.45 16.5515C123.934 13.0613 114.368 2.8013 113.796 -5.94971L119.067 -10.6819C119.225 -9.47113 119.566 -8.01968 120.248 -6.40255C123.058 0.272393 129.64 5.06399 135.179 8.0842L127.45 16.5515ZM137.495 6.18181C129.839 2.12451 126.037 -2.16701 124.152 -5.51553H150.842C148.41 -1.18896 143.844 2.8173 137.495 6.18181ZM147.55 16.5507L139.821 8.08572C147.329 4.01205 152.323 -0.798582 154.677 -6.22926C155.407 -7.9157 155.768 -9.42848 155.932 -10.6819L161.203 -5.94971C160.632 2.79216 151.065 13.0586 147.55 16.5507Z" fill="#7D7D7D"/>
<path d="M106.015 155.887C105.845 155.848 105.681 155.809 105.521 155.769C104.672 155.556 103.77 155.946 103.509 156.639C103.248 157.333 103.725 158.068 104.576 158.281C104.763 158.328 104.956 158.374 105.155 158.419C105.299 158.452 105.444 158.467 105.586 158.467C106.292 158.467 106.94 158.086 107.137 157.504C107.375 156.804 106.872 156.081 106.015 155.887Z" fill="#7D7D7D"/>
<path d="M167.703 77.2937C167.881 77.3467 168.067 77.3729 168.253 77.3729C168.44 77.3729 168.626 77.3467 168.804 77.2937L184.468 72.6468C185.105 72.4579 185.528 71.9643 185.528 71.4121V52.355V43.9937C185.528 43.2681 184.807 42.6797 183.918 42.6797H152.594C151.705 42.6797 150.984 43.2681 150.984 43.9937V52.355V71.4121C150.984 71.9643 151.407 72.4579 152.044 72.6468L167.703 77.2937ZM154.205 45.308H182.307V51.0415H154.205V45.308ZM154.205 53.669H182.307V70.4912L168.253 74.6605L154.205 70.4912V53.669Z" fill="#7D7D7D"/>
<g clip-path="url(#clip2_2222_6384)">
<path d="M836.691 90.4853C835.489 88.8904 833.758 88.5285 832.361 89.5805C830.964 90.6325 830.834 92.397 832.036 93.992L840.045 104.625L835.389 108.132L827.38 97.4988C826.179 95.9038 824.447 95.5419 823.05 96.5939C821.653 97.646 821.523 99.4104 822.725 101.005L830.936 111.906C830.098 112.907 829.428 114.022 828.92 115.213L816.477 108.211C815.211 107.499 813.414 108.019 812.651 109.427C812.12 110.66 812.856 112.606 814.323 113.584L826.988 120.71C827.225 120.844 827.481 120.934 827.745 120.983C827.707 124.716 828.938 128.628 831.435 131.943C833.959 135.294 837.425 137.571 841.066 138.548C841.05 138.88 841.091 139.229 841.204 139.584L844.558 153.725C844.66 155.314 846.327 156.558 848.092 156.479C849.656 156.134 850.652 154.55 850.349 152.695L847.088 138.944C848.28 138.773 849.445 138.446 850.556 137.954L858.767 148.855C859.968 150.45 861.7 150.812 863.097 149.76C864.493 148.708 864.624 146.943 863.422 145.348L855.413 134.715L860.068 131.208L868.078 141.841C869.279 143.436 871.011 143.798 872.408 142.746C873.804 141.694 873.934 139.93 872.733 138.335L864.724 127.702L869.379 124.195L877.389 134.828C878.59 136.423 880.322 136.785 881.719 135.733C883.115 134.681 883.245 132.916 882.044 131.321L874.035 120.688L878.69 117.181L886.7 127.814C887.901 129.409 889.633 129.771 891.029 128.719C892.426 127.667 892.556 125.903 891.355 124.308L883.345 113.675L888.001 110.168L896.01 120.801C897.212 122.396 898.944 122.758 900.34 121.706C901.737 120.654 901.867 118.889 900.666 117.294L892.651 106.655C893.652 105.867 894.51 104.963 895.223 103.97L906.881 110.53C908.147 111.242 909.945 110.722 910.708 109.314C911.238 108.081 911.103 106.932 910.302 105.869C909.902 105.337 909.469 105.247 909.036 105.157L897.515 98.6741C897.793 97.3153 897.886 95.9002 897.785 94.4651L906.808 87.6686L908.811 90.3268L965.953 54.7839C969.877 52.2443 972.168 48.0193 972.759 42.9913C973.349 37.963 971.742 32.9236 968.539 28.6704C965.335 24.4173 960.935 21.4819 956.107 21.3687C951.111 20.5486 946.418 21.5837 942.894 24.655L893.193 69.5923L894.795 71.719L885.787 78.5037C884.516 78.0329 883.217 77.7317 881.923 77.5998L878.834 64.5756C878.866 64.1346 878.666 63.8686 878.265 63.3372C877.465 62.274 876.165 62.0025 875.299 61.8215C873.535 61.9007 872.539 63.4845 873.074 65.164L876.17 78.2172C874.919 78.6402 873.727 79.2556 872.634 80.079L864.624 69.4459C863.423 67.851 861.691 67.489 860.294 68.5411C858.898 69.5931 858.768 71.3576 859.969 72.9526L867.978 83.5856L863.323 87.0924L855.313 76.4594C854.112 74.8644 852.38 74.5025 850.983 75.5545C849.587 76.6065 849.457 78.371 850.658 79.966L858.667 90.599L854.012 94.1059L846.002 83.4728C844.801 81.8779 843.069 81.5159 841.673 82.568C840.276 83.62 840.146 85.3845 841.347 86.9795L849.357 97.6125L844.701 101.119L836.691 90.4853ZM836.09 128.437C833.394 124.857 833.101 120.516 835.061 117.384L846.409 132.449C842.812 133.408 838.628 131.806 836.09 128.437ZM851.408 129.398L839.394 113.449L844.05 109.942L856.064 125.891L851.408 129.398ZM955.684 27.103C958.948 27.5609 961.881 29.5181 963.884 32.1763C965.886 34.8345 966.957 38.1943 966.697 41.7235C966.469 44.8115 964.742 47.3625 962.414 49.1158L909.895 81.5928L901.669 70.6725L947.164 29.3539C949.524 27.1596 952.42 26.6451 955.684 27.103ZM892.049 82.1197L898.799 77.0348L902.804 82.3515L896.053 87.4364L892.049 82.1197ZM887.874 86.264L890.873 90.2452C892.607 94.2274 891.789 98.9813 888.652 101.344L876.638 85.3945C879.951 82.8988 884.576 83.5051 887.874 86.264ZM871.982 88.9013L883.997 104.851L879.341 108.358L867.327 92.4082L871.982 88.9013ZM862.672 95.9148L874.686 111.864L870.03 115.371L858.016 99.4216L862.672 95.9148ZM853.361 102.928L865.375 118.878L860.719 122.385L848.705 106.435L853.361 102.928Z" fill="#7D7D7D"/>
</g>
<path fill-rule="evenodd" clip-rule="evenodd" d="M936.687 609.5C939.735 609.499 942.719 610.256 945.286 611.68C947.853 613.105 949.895 615.138 951.169 617.537C954.658 616.516 958.317 615.996 961.999 616C965.787 616 969.432 616.54 972.829 617.537C973.904 615.516 975.527 613.75 977.559 612.39C979.592 611.029 981.973 610.114 984.501 609.723C987.029 609.332 989.629 609.476 992.078 610.143C994.528 610.81 996.756 611.98 998.572 613.554C1000.39 615.127 1001.74 617.058 1002.51 619.181C1003.28 621.305 1003.44 623.558 1002.99 625.748C1002.54 627.939 1001.48 630.003 999.915 631.765C998.345 633.526 996.307 634.932 993.975 635.864C995.127 638.809 995.749 641.968 995.749 645.25C995.744 649.491 994.676 653.681 992.617 657.528C990.558 661.376 987.558 664.789 983.826 667.532C980.093 670.274 975.717 672.281 971.001 673.412C966.284 674.543 961.341 674.772 956.512 674.082C951.684 673.393 947.086 671.802 943.038 669.419C938.989 667.036 935.587 663.919 933.068 660.283C930.548 656.648 928.97 652.581 928.445 648.364C927.919 644.147 928.457 639.882 930.023 635.864C926.719 634.548 924.033 632.293 922.411 629.473C920.789 626.652 920.329 623.435 921.107 620.357C921.886 617.278 923.855 614.523 926.689 612.548C929.523 610.573 933.05 609.498 936.687 609.5ZM961.999 668C971.318 668 978.874 663.076 978.874 655C978.874 646.924 971.318 638.75 961.999 638.75C952.68 638.75 945.124 646.924 945.124 655C945.124 663.076 952.68 668 961.999 668ZM951.499 632.9C951.499 633.934 951.025 634.926 950.181 635.658C949.337 636.389 948.193 636.8 946.999 636.8C945.806 636.8 944.661 636.389 943.817 635.658C942.973 634.926 942.499 633.934 942.499 632.9C942.499 631.866 942.973 630.874 943.817 630.142C944.661 629.411 945.806 629 946.999 629C948.193 629 949.337 629.411 950.181 630.142C951.025 630.874 951.499 631.866 951.499 632.9ZM976.999 636.8C977.59 636.8 978.175 636.699 978.721 636.503C979.267 636.307 979.763 636.02 980.181 635.658C980.599 635.296 980.93 634.866 981.157 634.392C981.383 633.919 981.499 633.412 981.499 632.9C981.499 632.388 981.383 631.881 981.157 631.408C980.93 630.934 980.599 630.504 980.181 630.142C979.763 629.78 979.267 629.493 978.721 629.297C978.175 629.101 977.59 629 976.999 629C975.806 629 974.661 629.411 973.817 630.142C972.973 630.874 972.499 631.866 972.499 632.9C972.499 633.934 972.973 634.926 973.817 635.658C974.661 636.389 975.806 636.8 976.999 636.8ZM968.562 648.5C968.562 650.294 965.622 653.375 961.999 653.375C958.377 653.375 955.437 650.294 955.437 648.5C955.437 646.706 958.377 645.25 961.999 645.25C965.622 645.25 968.562 646.706 968.562 648.5Z" fill="#999999"/>
<g clip-path="url(#clip3_2222_6384)">
<path d="M581.305 43.3203H575.531V48.417H581.305V43.3203Z" fill="#7D7D7D"/>
<path d="M587.081 53.5156H581.307V58.6123H587.081V53.5156Z" fill="#7D7D7D"/>
<path d="M592.854 63.7109H587.08V68.8076H592.854V63.7109Z" fill="#7D7D7D"/>
<path d="M598.628 73.8984H592.854V78.9951H598.628V73.8984Z" fill="#7D7D7D"/>
<path d="M604.403 84.0938H598.629V89.1904H604.403V84.0938Z" fill="#7D7D7D"/>
<path d="M613.063 94.2891H607.289V99.3858H613.063V94.2891Z" fill="#7D7D7D"/>
<path d="M679.466 43.3203H673.691V48.417H679.466V43.3203Z" fill="#7D7D7D"/>
<path d="M673.692 53.5156H667.918V58.6123H673.692V53.5156Z" fill="#7D7D7D"/>
<path d="M667.917 63.7109H662.143V68.8076H667.917V63.7109Z" fill="#7D7D7D"/>
<path d="M662.143 73.8984H656.369V78.9951H662.143V73.8984Z" fill="#7D7D7D"/>
<path d="M656.37 84.0938H650.596V89.1904H656.37V84.0938Z" fill="#7D7D7D"/>
<path d="M647.708 94.2891H641.934V99.3858H647.708V94.2891Z" fill="#7D7D7D"/>
<path d="M627.499 114.672C622.724 114.672 618.838 118.102 618.838 122.317C618.838 126.532 622.724 129.962 627.499 129.962C632.274 129.962 636.16 126.532 636.16 122.317C636.16 118.102 632.274 114.672 627.499 114.672ZM627.499 124.865C625.905 124.865 624.612 123.724 624.612 122.317C624.612 120.91 625.905 119.769 627.499 119.769C629.093 119.769 630.386 120.91 630.386 122.317C630.386 123.724 629.093 124.865 627.499 124.865Z" fill="#7D7D7D"/>
<path d="M627.498 95L613.404 112.418C611.293 115.025 610.176 118.098 610.176 121.309V122.321C610.176 130.753 617.945 137.611 627.498 137.611C637.051 137.611 644.82 130.753 644.82 122.321V121.309C644.82 118.098 643.703 115.025 641.593 112.423L627.498 95ZM639.046 122.321C639.046 127.942 633.867 132.514 627.498 132.514C621.129 132.514 615.95 127.942 615.95 122.321V121.309C615.95 119.169 616.695 117.12 618.101 115.384L627.498 103.771L636.895 115.387C638.301 117.12 639.046 119.169 639.046 121.309V122.321Z" fill="#7D7D7D"/>
<path d="M704.138 38.3373L675.834 31.6759C674.572 31.3778 673.691 30.3661 673.691 29.2142V19.8822C673.691 14.5434 669.875 9.73213 664.19 7.91007L643.857 1.38375C641.001 0.466347 638.016 0 634.979 0H620.018C616.981 0 613.996 0.466347 611.141 1.3812L590.807 7.90752C585.122 9.72958 581.306 14.5434 581.306 19.8822V29.2142C581.306 30.3661 580.425 31.3778 579.164 31.6759L550.859 38.3373C543.289 40.1186 538 46.1939 538 53.1126V60.9284C538 63.1404 538.531 65.2835 539.576 67.2993L568.574 123.146C569.697 125.302 571.265 127.211 573.236 128.819L603.242 153.27C606.986 156.318 611.857 157.997 616.949 157.997H638.051C643.143 157.997 648.011 156.318 651.758 153.268L681.764 128.819C683.738 127.211 685.306 125.302 686.426 123.146L715.424 67.2993C716.469 65.2835 717 63.1404 717 60.9284V53.1126C716.997 46.1939 711.708 40.1186 704.138 38.3373ZM711.226 60.9284H711.223C711.223 62.4014 710.871 63.831 710.172 65.174L681.175 121.021C680.375 122.56 679.255 123.926 677.843 125.075L647.841 149.522C645.164 151.7 641.686 152.901 638.048 152.901H616.946C613.309 152.901 609.83 151.7 607.156 149.524L577.151 125.075C575.74 123.926 574.619 122.563 573.82 121.021L544.825 65.174C544.126 63.831 543.774 62.4014 543.774 60.9284V53.1126C543.774 48.5001 547.299 44.4508 552.349 43.2607L580.653 36.5993C584.435 35.7074 587.08 32.6698 587.08 29.2142V19.8822C587.08 16.6789 589.369 13.7916 592.782 12.6984L613.115 6.17209C615.333 5.45856 617.657 5.09669 620.018 5.09669H634.979C637.341 5.09669 639.665 5.45856 641.885 6.16955L662.218 12.6959C665.628 13.7916 667.917 16.6789 667.917 19.8822V29.2142C667.917 32.6698 670.562 35.7074 674.347 36.5968L702.651 43.2582C707.701 44.4483 711.226 48.5001 711.226 53.1101V60.9284Z" fill="#7D7D7D"/>
</g>
<g clip-path="url(#clip4_2222_6384)">
<path d="M823.907 269.435C830.402 279.032 844.835 283.237 859.291 279.668C876.008 275.54 887.545 262.258 885.797 249.28C887.741 247.272 890.808 244.838 895.044 243.792C895.047 243.791 895.047 243.791 895.05 243.79C898.862 242.914 902.716 243.649 905.43 244.497C909.952 256.752 926.335 263.114 943.014 258.996C957.442 255.433 968.249 245.02 969.56 233.524C972.759 231.792 973.502 228.007 971.511 223.195C971.215 222.482 970.817 221.936 970.366 221.507L970.509 221.472L934.533 191.554C933.388 190.602 931.097 190.1 929.321 190.414L911.197 193.607C909.234 193.953 907.935 195.46 908.294 196.914L908.905 199.386C909.268 200.857 911.128 201.535 913.006 200.904L931.335 194.625L948.355 209.414C942.924 208.38 936.925 208.504 930.914 209.988C915.548 213.782 904.401 225.407 904.229 237.473C900.599 236.917 897.079 237.021 893.741 237.788L893.384 237.874C889.88 238.739 886.589 240.301 883.578 242.528C877.791 231.961 862.526 226.876 847.191 230.662C841.211 232.139 835.871 234.801 831.554 238.221L839.719 217.25L858.864 214.276C860.805 213.966 862.153 212.495 861.789 211.024L861.179 208.551C860.82 207.097 858.971 206.352 857.067 206.976L839.539 212.586C837.822 213.138 836.029 214.645 835.457 216.023L817.541 259.241L817.749 259.189C817.548 259.779 817.449 260.445 817.516 261.217C817.986 266.307 820.348 269.306 823.907 269.435ZM932.428 216.26C945.877 212.939 958.876 218.564 961.403 228.8C963.93 239.036 955.043 250.063 941.594 253.384C928.144 256.704 915.146 251.08 912.618 240.845C910.091 230.61 918.978 219.58 932.428 216.26ZM849.188 236.812C862.639 233.491 875.638 239.116 878.165 249.351C880.693 259.587 871.805 270.615 858.354 273.936C844.907 277.256 831.908 271.632 829.381 261.397C826.853 251.161 835.74 240.132 849.188 236.812Z" fill="#7D7D7D"/>
</g>
<g clip-path="url(#clip5_2222_6384)">
<path d="M199.04 853.243C197.019 841.524 194.93 829.406 194.341 820.19C192.986 798.942 175.678 795.701 174.942 795.573C174.915 795.569 164.741 794.731 160.764 790.461C160.197 789.499 158.995 789.03 157.762 789.225C157.291 789.3 156.867 789.481 156.515 789.735C155.322 790.203 149.994 791.963 137.029 792.265C124.104 792.566 118.687 791.059 117.422 790.631C117.063 790.401 116.642 790.245 116.178 790.193C114.935 790.056 113.758 790.581 113.236 791.568C109.16 796.156 99.3382 797.329 99.3104 797.335C98.581 797.497 81.4424 801.54 81.0773 822.828C80.9189 832.062 79.3958 844.264 77.9233 856.064C75.5345 875.207 74.2536 886.571 76.4065 890.713L77.919 899.306C78.1174 900.432 79.1829 901.288 80.4962 901.377C80.4962 901.377 92.3839 902.171 92.4825 902.169C93.6529 902.142 94.7033 901.493 95.1054 900.521L98.68 891.881C99.3704 890.632 104.106 881.721 106.724 868.086C107.568 869.471 108.596 870.639 109.847 871.436C104.723 880.243 89.8502 911.613 91.3722 976.966C91.3819 977.38 91.5122 977.785 91.7508 978.143C92.533 979.316 100.578 989.578 141.602 988.623C182.626 987.667 190.184 977.042 190.911 975.833C191.132 975.465 191.243 975.054 191.234 974.64C189.712 909.289 173.395 878.645 167.866 870.085C169.079 869.23 170.051 868.017 170.828 866.595C174.076 880.085 179.218 888.762 179.97 889.986L183.944 898.452C184.391 899.404 185.471 900.003 186.642 899.976C186.74 899.974 198.578 898.627 198.578 898.627C199.885 898.477 200.91 897.573 201.056 896.438L202.167 887.784C204.125 883.546 202.317 872.255 199.04 853.243ZM159.714 796.28C160.14 796.533 160.611 796.789 161.123 797.044C160.908 799.486 162.294 801.888 163.474 803.917C164.488 805.662 165.637 807.64 165.03 808.557C164.754 808.99 163.835 809.064 161.74 809.073C158.788 809.087 153.837 809.107 151.792 813.915C150.204 817.767 152.07 820.756 153.57 823.157C154.926 825.329 155.659 826.636 154.945 828.263C154.315 829.73 153.125 830.309 150.899 831.287C148.121 832.508 144.316 834.18 142.928 839.128C141.692 843.589 143.594 846.222 144.983 848.146C146.226 849.868 146.977 850.908 146.279 853.277C145.565 855.715 144.002 857.206 142.193 858.933C141.947 859.168 141.698 859.406 141.449 859.649L140.813 832.334C142.588 829.272 150.483 815.036 150.992 803.21C153.471 802.255 157.527 800.179 159.714 796.28ZM146.335 882.442C145.574 882.18 143.732 880.676 142.563 877.711C141.395 874.747 141.786 872.572 142.201 871.955C142.962 872.218 144.804 873.722 145.973 876.687C147.141 879.652 146.749 881.827 146.335 882.442ZM135.478 877.877C134.449 880.892 132.679 882.48 131.931 882.778C131.489 882.182 130.996 880.028 132.025 877.013C133.06 873.981 134.844 872.392 135.57 872.107C136.013 872.698 136.51 874.855 135.478 877.877ZM137.144 797.195C144.674 797.02 149.904 796.37 153.434 795.682C151.102 798.184 147.621 799.082 147.421 799.131C146.157 799.434 145.287 800.442 145.314 801.574C145.506 809.85 140.808 820.41 137.82 826.257C134.563 820.56 129.381 810.238 129.187 801.95C129.161 800.817 128.245 799.85 126.968 799.608C126.917 799.598 123.308 798.878 120.81 796.443C124.367 796.965 129.62 797.37 137.144 797.195ZM111.155 805.136C112.239 803.054 113.511 800.59 113.183 798.161C113.684 797.882 114.142 797.604 114.556 797.331C116.922 801.125 121.07 803.01 123.59 803.848C124.649 815.638 133.199 829.491 135.115 832.467L135.751 859.782C135.49 859.552 135.23 859.325 134.974 859.102C133.086 857.461 131.456 856.044 130.628 853.64C129.822 851.308 130.524 850.234 131.685 848.456C132.983 846.47 134.76 843.751 133.315 839.345C131.7 834.474 127.822 832.981 124.99 831.891C122.722 831.017 121.505 830.494 120.799 829.04C120.019 827.466 120.69 826.126 121.944 823.893C123.33 821.425 125.055 818.353 123.279 814.556C121.024 809.871 116.081 810.082 113.127 810.205C111.035 810.293 110.112 810.263 109.792 809.809C109.167 808.956 110.223 806.926 111.155 805.136ZM90.4813 897.099L83.2147 896.611L82.5117 892.619L92.1021 893.181L90.4813 897.099ZM94.2629 888.362L81.2152 887.597C80.2877 883.022 82.1758 867.889 83.5898 856.561C85.0763 844.648 86.6138 832.33 86.7759 822.867C86.9707 811.524 92.6224 806.198 96.6716 803.831C96.1537 810.063 95.9237 821.608 99.9656 830.437C100.287 831.721 102.174 839.555 102.732 848.174C103.154 868.243 96.5555 883.644 94.2629 888.362ZM108.568 851.115C108.079 837.605 105.4 828.88 105.342 828.757C101.078 819.63 102.066 806.466 102.598 801.781C104.285 801.452 105.795 801.071 107.154 800.657C106.848 801.434 106.402 802.29 105.962 803.135C104.515 805.917 102.713 809.38 104.948 812.434C107.039 815.398 110.696 815.242 113.367 815.131C116.702 814.99 117.397 815.191 118.006 816.455C118.784 818.119 118.1 819.487 116.822 821.761C115.438 824.225 113.716 827.292 115.552 830.993C117.148 834.281 120.197 835.455 122.646 836.398C125.144 837.359 126.949 838.055 127.835 840.726C128.628 843.145 127.872 844.3 126.729 846.049C125.437 848.028 123.666 850.737 125.167 855.079C126.401 858.661 128.803 860.75 130.923 862.592C132.531 863.99 133.986 865.258 134.995 867.147L113.871 867.639C111.435 867.696 108.867 859.354 108.568 851.115ZM185.516 973.939C183.659 975.773 174.335 982.928 141.487 983.693C108.639 984.458 98.9922 977.745 97.052 976C95.6394 909.252 111.949 878.557 115.615 872.531L128.172 872.239C127.536 873.26 126.986 874.399 126.561 875.644C125.73 878.078 125.502 880.545 125.918 882.591C126.449 885.198 128.043 887.017 130.292 887.579C130.809 887.709 131.348 887.768 131.894 887.756C133.007 887.73 134.112 887.398 135.162 886.818L136.295 935.494C136.327 936.855 137.629 937.929 139.202 937.892C140.775 937.856 142.025 936.723 141.993 935.361L140.983 891.963L146.179 910.686C146.497 911.832 147.694 912.591 149.004 912.561C149.206 912.556 149.41 912.533 149.614 912.49C151.144 912.163 152.088 910.826 151.72 909.505L145.57 887.343C145.915 887.391 146.259 887.421 146.603 887.413C147.149 887.4 147.685 887.316 148.195 887.162C150.416 886.496 151.924 884.605 152.333 881.976C152.654 879.913 152.311 877.459 151.368 875.067C150.886 873.844 150.287 872.728 149.605 871.74L162.157 871.447C166.1 877.298 183.82 907.204 185.516 973.939ZM170.381 827.243C170.329 827.368 168.045 838.666 168.198 849.727C168.313 857.97 166.106 866.423 163.673 866.48L142.548 866.972C143.467 865.038 144.861 863.704 146.403 862.232C148.434 860.293 150.736 858.095 151.802 854.462C153.1 850.053 151.205 847.428 149.821 845.513C148.598 843.818 147.79 842.699 148.467 840.254C149.23 837.536 151.001 836.758 153.451 835.681C155.854 834.625 158.844 833.311 160.277 829.97C161.947 826.169 160.084 823.186 158.587 820.789C157.205 818.577 156.458 817.242 157.147 815.568C157.706 814.253 158.387 814.019 161.729 814.005C164.403 813.993 168.063 813.977 169.992 810.954C172.105 807.764 170.144 804.389 168.568 801.678C168.089 800.855 167.604 800.02 167.262 799.258C168.64 799.608 170.166 799.919 171.867 800.169C172.619 804.819 174.223 817.909 170.381 827.243ZM195.64 893.993L188.405 894.819L186.603 890.98L196.157 889.972L195.64 893.993ZM197.221 884.895L184.219 886.267C181.707 881.672 174.411 866.65 173.892 846.543C174.046 837.909 175.569 829.969 175.83 828.669C179.453 819.672 178.691 808.168 177.885 801.962C182.032 804.152 187.932 809.22 188.651 820.494C189.254 829.94 191.363 842.173 193.403 854.003C195.342 865.256 197.934 880.289 197.221 884.895Z" fill="#999999"/>
</g>
<path fill-rule="evenodd" clip-rule="evenodd" d="M661.501 197.086C656.892 197.086 653.157 200.78 653.157 205.336V206.269C654.705 206.253 656.376 206.253 658.182 206.253H664.818C666.625 206.253 668.296 206.253 669.844 206.269V205.336C669.844 200.78 666.109 197.086 661.501 197.086ZM675.407 206.461V205.336C675.407 197.742 669.181 191.586 661.501 191.586C653.82 191.586 647.594 197.742 647.594 205.336V206.461C647.094 206.498 646.61 206.54 646.144 206.59C642.887 206.937 640.163 207.664 637.744 209.303C636.912 209.867 636.131 210.5 635.408 211.196C633.308 213.22 632.053 215.719 631.07 218.809C630.115 221.809 629.344 225.623 628.375 230.414L628.304 230.764C626.907 237.669 625.807 243.11 625.491 247.444C625.168 251.872 625.619 255.597 627.74 258.825C628.448 259.902 629.274 260.898 630.204 261.796C632.989 264.486 636.595 265.654 641.049 266.209C645.409 266.753 651.021 266.753 658.143 266.753H664.858C671.98 266.753 677.592 266.753 681.951 266.209C686.406 265.654 690.012 264.486 692.797 261.796C693.727 260.898 694.553 259.902 695.261 258.825C697.382 255.597 697.833 251.872 697.51 247.444C697.194 243.11 696.094 237.669 694.697 230.765L694.626 230.414C693.657 225.623 692.886 221.809 691.931 218.809C690.948 215.719 689.693 213.22 687.592 211.196C686.87 210.5 686.089 209.867 685.257 209.303C682.838 207.664 680.114 206.937 676.857 206.59C676.39 206.54 675.907 206.498 675.407 206.461ZM646.74 212.058C643.971 212.353 642.26 212.91 640.889 213.84C640.32 214.226 639.785 214.659 639.291 215.135C638.1 216.283 637.212 217.832 636.376 220.459C635.522 223.144 634.806 226.666 633.798 231.649C632.353 238.79 631.327 243.892 631.039 247.84C630.755 251.733 631.234 254.047 632.405 255.829C632.889 256.566 633.454 257.247 634.09 257.861C635.627 259.345 637.828 260.264 641.745 260.752C645.716 261.247 650.977 261.253 658.343 261.253H664.658C672.024 261.253 677.284 261.247 681.256 260.752C685.173 260.264 687.374 259.345 688.911 257.861C689.547 257.247 690.112 256.566 690.596 255.829C691.767 254.047 692.246 251.733 691.962 247.84C691.674 243.892 690.648 238.79 689.203 231.649C688.195 226.666 687.479 223.144 686.625 220.459C685.789 217.832 684.901 216.283 683.71 215.135C683.216 214.659 682.681 214.226 682.112 213.84C680.741 212.91 679.03 212.353 676.26 212.058C673.431 211.756 669.797 211.753 664.658 211.753H658.343C653.204 211.753 649.57 211.756 646.74 212.058ZM650.082 239.41C651.531 238.904 653.12 239.654 653.631 241.086C654.778 244.294 657.873 246.586 661.501 246.586C665.13 246.586 668.224 244.294 669.371 241.086C669.883 239.654 671.472 238.904 672.92 239.41C674.368 239.916 675.127 241.487 674.615 242.919C672.708 248.256 667.56 252.086 661.501 252.086C655.442 252.086 650.295 248.256 648.387 242.919C647.875 241.487 648.634 239.916 650.082 239.41Z" fill="#7D7D7D"/>
<g clip-path="url(#clip6_2222_6384)">
<path d="M593.746 775.718L483.335 812.523C481.531 813.124 479.619 813.238 477.885 812.846C476.151 812.455 474.689 811.58 473.719 810.353C472.749 809.126 472.322 807.613 472.504 806.04C472.685 804.468 473.464 802.921 474.724 801.633L522.109 753.188C523.261 752.031 524.746 751.138 526.384 750.616C528.022 750.094 529.744 749.965 531.343 750.245L594.37 761.885C596.109 762.207 597.607 763.006 598.644 764.166C599.681 765.326 600.202 766.786 600.133 768.332C600.063 769.878 599.405 771.429 598.256 772.758C597.107 774.087 595.527 775.124 593.746 775.718ZM527.687 754.987C527.127 755.174 526.621 755.485 526.229 755.886L478.844 804.332C478.399 804.787 478.124 805.333 478.06 805.888C477.996 806.443 478.147 806.978 478.49 807.411C478.833 807.844 479.349 808.153 479.961 808.291C480.573 808.429 481.249 808.389 481.886 808.176L592.298 771.371C592.926 771.162 593.484 770.795 593.889 770.326C594.295 769.857 594.527 769.309 594.551 768.763C594.576 768.218 594.392 767.702 594.026 767.293C593.66 766.883 593.131 766.601 592.517 766.488L529.49 754.847C528.91 754.739 528.281 754.788 527.687 754.987Z" fill="#999999"/>
<path d="M527.428 755.173C526.654 755.405 525.842 755.38 525.169 755.101C524.496 754.823 524.018 754.315 523.839 753.689L520.219 742.83C520.089 742.531 520.037 742.204 520.068 741.87C520.098 741.536 520.21 741.202 520.396 740.889C520.582 740.576 520.838 740.29 521.148 740.05C521.459 739.809 521.817 739.619 522.2 739.491C522.584 739.363 522.984 739.301 523.377 739.307C523.77 739.313 524.146 739.388 524.483 739.527C524.819 739.666 525.109 739.866 525.334 740.115C525.558 740.364 525.713 740.656 525.789 740.973L529.409 751.832C529.641 752.441 529.563 753.134 529.192 753.76C528.82 754.387 528.186 754.895 527.428 755.173Z" fill="#999999"/>
<path d="M510.443 724.144C508.146 724.904 506.032 726.104 504.284 727.64C502.536 729.176 501.207 731.001 500.412 732.959C499.617 734.916 499.379 736.947 499.72 738.875C500.06 740.802 500.969 742.569 502.367 744.023C502.582 744.247 502.852 744.428 503.164 744.555C503.476 744.682 503.822 744.752 504.183 744.761C504.545 744.77 504.915 744.719 505.271 744.61C505.627 744.5 505.963 744.335 506.26 744.124C506.557 743.913 506.809 743.659 507.002 743.378C507.194 743.097 507.323 742.793 507.381 742.485C507.44 742.177 507.426 741.869 507.342 741.581C507.258 741.293 507.104 741.028 506.89 740.804C505.853 739.719 505.257 738.36 505.176 736.893C505.095 735.425 505.531 733.914 506.432 732.544C507.333 731.174 508.659 730.005 510.247 729.18C511.835 728.356 513.616 727.912 515.372 727.903C517.128 727.893 518.781 728.32 520.13 729.129C521.479 729.938 522.465 731.095 522.966 732.458C523.467 733.82 523.461 735.33 522.95 736.8C522.439 738.27 521.444 739.638 520.088 740.735C518.077 742.088 520.217 746.264 523.667 743.916C526.228 741.846 527.98 739.188 528.633 736.38C529.286 733.573 528.801 730.786 527.259 728.48C525.716 726.173 523.208 724.486 520.149 723.698C517.091 722.91 513.666 723.067 510.44 724.145L510.443 724.144Z" fill="#999999"/>
<path d="M532.737 751.235C533.041 752.147 533.003 753.151 532.627 754.119C532.251 755.087 531.554 755.976 530.625 756.674C529.696 757.371 528.575 757.846 527.406 758.038C526.236 758.23 525.07 758.131 524.055 757.753C523.039 757.375 522.22 756.734 521.701 755.913C521.182 755.092 520.986 754.127 521.139 753.14C521.291 752.152 521.784 751.188 522.556 750.367C523.329 749.546 524.345 748.907 525.477 748.53C526.995 748.024 528.612 748.025 529.974 748.532C531.336 749.039 532.33 750.011 532.737 751.235Z" fill="#999999"/>
<path d="M508.801 741.87C509.005 742.481 508.979 743.154 508.727 743.803C508.475 744.451 508.008 745.047 507.386 745.514C506.763 745.982 506.012 746.3 505.229 746.429C504.445 746.558 503.664 746.491 502.983 746.238C502.303 745.984 501.754 745.555 501.406 745.005C501.059 744.455 500.927 743.808 501.029 743.147C501.131 742.485 501.462 741.839 501.979 741.289C502.497 740.739 503.178 740.31 503.936 740.058C504.953 739.719 506.037 739.719 506.949 740.059C507.862 740.399 508.528 741.05 508.801 741.87Z" fill="#999999"/>
<path d="M559.815 785.523C559.426 785.653 559.021 785.717 558.623 785.711C558.225 785.705 557.844 785.63 557.502 785.49L548.359 781.73L526.698 788.951L521.264 797.613C521.075 797.914 520.821 798.188 520.518 798.42C520.215 798.651 519.868 798.836 519.497 798.963C519.126 799.09 518.738 799.157 518.355 799.161C517.973 799.164 517.603 799.103 517.267 798.982C516.932 798.86 516.636 798.681 516.398 798.454C516.16 798.226 515.985 797.956 515.881 797.657C515.777 797.358 515.747 797.038 515.793 796.713C515.84 796.389 515.961 796.066 516.15 795.765L522.188 786.141C522.38 785.836 522.638 785.559 522.946 785.325C523.254 785.092 523.607 784.907 523.984 784.781L548.066 776.754C548.454 776.624 548.86 776.561 549.257 776.567C549.655 776.573 550.036 776.648 550.377 776.789L560.604 780.991C561.089 781.191 561.475 781.514 561.715 781.921C561.955 782.328 562.038 782.802 561.954 783.283C561.87 783.765 561.623 784.233 561.243 784.631C560.863 785.029 560.367 785.339 559.815 785.523Z" fill="#999999"/>
</g>
<g clip-path="url(#clip7_2222_6384)">
<path d="M927.753 471.266C922.191 471.266 917.641 473.955 917.641 477.241C917.641 480.527 922.191 483.216 927.753 483.216C933.314 483.216 937.865 480.527 937.865 477.241C937.865 473.955 933.314 471.266 927.753 471.266ZM927.753 480.826C924.416 480.826 921.685 479.213 921.685 477.241C921.685 475.269 924.416 473.656 927.753 473.656C931.09 473.656 933.82 475.269 933.82 477.241C933.82 479.213 931.09 480.826 927.753 480.826Z" fill="#999999"/>
<path d="M939.888 464.156H912.585C909.855 464.156 907.327 464.754 905.507 465.889L864.958 489.731C861.014 492.061 861.014 495.825 864.958 498.156L892.058 514.11C893.979 515.245 896.507 515.843 899.238 515.843C901.968 515.843 904.496 515.245 906.417 514.11L946.966 490.149C948.888 489.073 950 487.579 950 486.026V470.132C950 466.845 945.45 464.156 939.888 464.156ZM945.955 486.026C945.955 486.922 945.348 487.818 944.135 488.416L903.485 512.437C902.372 513.094 900.856 513.452 899.238 513.452C897.62 513.452 896.103 513.094 894.991 512.437L867.789 496.483C865.463 495.108 865.463 492.838 867.789 491.404L908.338 467.562C909.451 466.905 910.968 466.546 912.585 466.546H939.888C943.225 466.546 945.955 468.16 945.955 470.132V486.026Z" fill="#999999"/>
</g>
<g clip-path="url(#clip8_2222_6384)">
<path d="M389.723 105.333L371 74.8022L376.843 65.3446C377.104 64.9362 377.268 64.4979 377.326 64.0554C377.384 63.6128 377.334 63.1748 377.18 62.7668C377.026 62.3588 376.77 61.989 376.427 61.679C376.084 61.3689 375.662 61.1247 375.184 60.9606C374.706 60.7965 374.183 60.7158 373.644 60.7232C373.105 60.7306 372.562 60.826 372.046 61.0037C371.53 61.1814 371.051 61.438 370.638 61.7584C370.224 62.0789 369.885 62.4569 369.638 62.8704L363.708 72.4209L351.498 75.4862L341.792 69.8609C341.379 69.6129 340.901 69.4402 340.386 69.353C339.87 69.2658 339.327 69.2657 338.788 69.3529C338.249 69.44 337.725 69.6125 337.247 69.8605C336.768 70.1084 336.345 70.4268 336.002 70.7971C335.658 71.1674 335.401 71.5822 335.245 72.0173C335.09 72.4525 335.039 72.8993 335.095 73.3318C335.152 73.7643 335.315 74.1739 335.575 74.5366C335.835 74.8994 336.187 75.208 336.61 75.4447L346.227 81.0213L344.114 116.786C344.021 118.51 344.472 120.176 345.424 121.625C346.376 123.073 347.797 124.255 349.55 125.057L369.709 134.205C370.609 134.613 371.711 134.693 372.771 134.427C373.832 134.16 374.766 133.57 375.366 132.785L388.814 115.2C389.986 113.665 390.685 111.952 390.844 110.224C391.004 108.495 390.617 106.811 389.723 105.333ZM382.067 112.11L370.854 126.738L354.093 119.132C353.509 118.865 353.035 118.471 352.717 117.988C352.399 117.505 352.248 116.949 352.278 116.374L354.32 81.5439L364.082 79.0932L382.328 108.827C382.627 109.319 382.758 109.881 382.707 110.457C382.656 111.033 382.424 111.605 382.035 112.118L382.067 112.11Z" fill="#7D7D7D"/>
<path d="M387.177 29.8845L373.577 26.5327C372.831 26.3608 372.014 26.382 371.232 26.5937L371.222 26.5555L323.212 38.6081L323.222 38.6462C322.432 38.8292 321.702 39.1962 321.126 39.7001L310.721 49.0783C310.089 49.649 309.683 50.3544 309.564 51.0859C309.446 51.8174 309.622 52.5343 310.066 53.1265L314.332 58.8216C314.598 59.1769 314.953 59.4781 315.377 59.7079C315.801 59.9378 316.285 60.0917 316.802 60.161C317.32 60.2303 317.86 60.2136 318.392 60.1118C318.924 60.01 319.438 59.8251 319.904 59.5677C320.37 59.3104 320.779 58.9855 321.108 58.6118C321.437 58.238 321.679 57.8226 321.82 57.3894C321.962 56.9561 322 56.5134 321.933 56.0866C321.866 55.6599 321.695 55.2573 321.429 54.9019L318.693 51.2719L324.531 46.014L347.153 56.2794L334.204 73.2112L330.088 66.5073C329.62 65.7601 328.787 65.2278 327.772 65.0264C326.756 64.825 325.64 64.9709 324.667 65.4322C323.694 65.8935 322.942 66.6329 322.577 67.4891C322.211 68.3452 322.261 69.2487 322.715 70.0025L329.912 81.7281C330.219 82.2303 330.694 82.6421 331.287 82.9216C331.88 83.2011 332.57 83.3385 333.288 83.3196C333.659 83.3079 334.032 83.2552 334.397 83.163C335.458 82.8965 336.391 82.3056 336.992 81.5205L353.939 59.3593L379.345 70.8881C380.245 71.2966 381.346 71.3766 382.407 71.1104C382.736 71.0275 383.056 70.9131 383.36 70.7699C383.998 70.4667 384.547 70.0409 384.952 69.5341C385.357 69.0274 385.604 68.4571 385.671 67.8791L389.684 33.041C389.766 32.3266 389.567 31.6343 389.115 31.0661C388.664 30.4979 387.985 30.0837 387.177 29.8845ZM334.468 42.5485L363.162 35.345L351.68 50.3592L334.468 42.5485ZM378.189 62.3889L358.467 53.4391L373.558 33.7063L381.265 35.6078L378.189 62.3889Z" fill="#7D7D7D"/>
</g>
<g clip-path="url(#clip9_2222_6384)">
<path d="M195.204 233.446C190.897 230.299 184.385 231.158 170.468 235.243C169.401 235.556 168.28 235.89 166.829 236.326C166.504 236.423 165.279 236.792 164.276 237.094C162.318 237.681 160.481 238.231 159.68 238.467C155.259 239.769 151.628 240.768 148.092 241.63C146.679 241.975 145.299 242.291 143.945 242.581C143.837 241.702 143.222 240.938 142.299 240.676C141.033 240.316 139.672 241.038 139.259 242.288L138.835 243.57C137.416 243.813 136.029 244.021 134.673 244.194C134.7 243.178 134.049 242.247 133.01 241.952C131.744 241.592 130.383 242.314 129.97 243.564L129.6 244.685C128.266 244.77 126.963 244.816 125.689 244.821C125.945 243.648 125.263 242.483 124.078 242.147C122.812 241.787 121.451 242.509 121.038 243.759L120.752 244.623C118.626 244.438 116.58 244.123 114.606 243.671C114.549 243.659 114.503 243.65 114.463 243.643C114.451 243.64 114.44 243.639 114.429 243.637C114.407 243.633 114.386 243.629 114.368 243.627C114.302 243.616 114.246 243.609 114.195 243.604C113.801 243.556 113.315 243.473 112.672 243.325C111.349 243.02 109.938 242.56 108.507 241.916C106.037 240.805 103.808 239.288 101.929 237.307C101.92 237.298 101.912 237.288 101.904 237.28C101.743 237.11 101.585 236.937 101.43 236.76C101.358 236.678 101.288 236.592 101.217 236.508C101.126 236.402 101.035 236.298 100.947 236.189C100.468 235.599 100.015 234.973 99.5933 234.309C98.4101 232.444 95.9436 231.773 93.8835 232.865L77.9424 241.317C77.9331 241.322 77.9249 241.328 77.9157 241.333L54.2694 253.87C52.128 255.006 51.2727 257.589 52.3619 259.644C53.3094 261.431 54.1821 263.267 54.9871 265.146C55 265.181 55.0101 265.215 55.0246 265.249C57.14 270.21 58.7595 275.483 59.8928 281.027C59.9049 281.087 59.9204 281.144 59.937 281.201C60.2105 282.555 60.4579 283.922 60.6723 285.306C61.8 292.597 64.1031 298.728 67.9601 303.005C67.7417 303.604 67.7644 304.276 68.0771 304.866L73.4239 314.951C74.0182 316.072 75.4379 316.492 76.6195 315.897C76.8433 315.784 76.8433 315.784 77.9069 315.249C79.3627 314.516 80.175 314.108 81.5471 313.418C85.4677 311.446 89.8372 309.251 94.5437 306.888C107.991 300.137 121.445 293.4 134.012 287.132C140.762 283.765 147.08 280.621 152.886 277.74C156.524 275.936 159.945 274.242 163.136 272.667C181.168 263.765 191.682 254.212 196.529 244.885C198.549 240.997 198.224 238.66 195.887 234.251C195.731 233.941 195.502 233.664 195.204 233.446ZM165.574 241.585C168.078 240.835 170.764 240.029 171.732 239.745C180.972 237.034 186.583 235.941 189.838 236.392C188.695 237.594 187.183 238.995 185.248 240.593C183.312 242.192 181.101 243.871 178.608 245.627C177.742 246.234 176.833 246.858 175.875 247.5C171.311 250.561 166.009 253.797 159.926 257.205C159.753 257.302 159.58 257.399 159.406 257.496C159.16 257.633 158.912 257.771 158.664 257.908C152.643 261.241 145.822 264.771 138.141 268.496C139.834 263.072 147.823 256.033 159.412 248.937C162.272 247.185 164.4 244.597 165.574 241.585ZM119.157 257.052C120.424 257.412 121.785 256.691 122.197 255.44L124.151 249.524C125.416 249.547 126.704 249.532 128.017 249.479L126.819 253.107C126.407 254.357 127.099 255.662 128.365 256.022C129.631 256.382 130.992 255.66 131.405 254.41L133.158 249.1C134.473 248.96 135.814 248.787 137.18 248.584L135.896 252.474C135.483 253.724 136.175 255.03 137.441 255.39C138.708 255.75 140.069 255.028 140.482 253.778L142.501 247.66C144.637 247.24 146.836 246.753 149.105 246.2C152.11 245.467 155.17 244.641 158.688 243.626C158.166 244.129 157.587 244.581 156.952 244.97C142.073 254.08 132.673 262.832 132.98 270.973C130.127 272.32 127.173 273.689 124.112 275.078C124.099 275.084 124.085 275.09 124.072 275.096C123.341 275.428 122.605 275.76 121.862 276.094C118.931 277.412 116.128 278.682 113.438 279.91C113.395 279.929 113.352 279.949 113.309 279.968C112.711 280.241 112.121 280.511 111.535 280.78C111.439 280.823 111.342 280.867 111.247 280.911C110.702 281.161 110.164 281.408 109.628 281.654C109.495 281.716 109.36 281.778 109.227 281.839C108.715 282.074 108.209 282.307 107.707 282.54C107.559 282.607 107.411 282.676 107.264 282.744C106.778 282.969 106.297 283.191 105.818 283.413C105.659 283.487 105.499 283.561 105.34 283.635C104.876 283.851 104.416 284.064 103.959 284.277C103.796 284.353 103.632 284.43 103.469 284.505C103.023 284.713 102.581 284.92 102.143 285.124C101.971 285.205 101.8 285.285 101.629 285.365C101.202 285.565 100.779 285.763 100.36 285.96C100.189 286.041 100.019 286.12 99.8496 286.2C99.4283 286.398 99.0102 286.595 98.5963 286.791C98.4405 286.864 98.2856 286.938 98.1307 287.011C97.7118 287.209 97.2957 287.406 96.8842 287.601C96.738 287.67 96.5933 287.739 96.4481 287.808C96.0341 288.005 95.6225 288.201 95.2162 288.394C95.0786 288.46 94.943 288.525 94.8064 288.59C94.3966 288.786 93.989 288.98 93.5868 289.173C93.4625 289.233 93.3403 289.291 93.2168 289.351C92.8075 289.547 92.4003 289.743 91.9989 289.936C91.8951 289.986 91.7934 290.035 91.6901 290.085C91.2703 290.288 90.8528 290.489 90.4415 290.689C90.3811 290.718 90.3224 290.747 90.2623 290.776C89.8145 290.993 89.3697 291.209 88.9321 291.422L88.9311 291.422C86.0442 292.829 83.3775 294.152 80.9095 295.398C80.871 295.417 80.8315 295.437 80.7931 295.456C80.4481 295.631 80.1091 295.803 79.7722 295.974C79.6921 296.015 79.6107 296.056 79.531 296.096C79.2156 296.257 78.9055 296.415 78.597 296.573C78.5018 296.621 78.4053 296.671 78.3105 296.719C78.0176 296.869 77.7292 297.017 77.4425 297.165C77.3358 297.22 77.2282 297.275 77.1223 297.33C76.842 297.475 76.5657 297.618 76.2911 297.76C76.1862 297.814 76.0809 297.869 75.9769 297.923C75.7079 298.063 75.4425 298.201 75.1788 298.339C75.0704 298.396 74.962 298.452 74.8546 298.508C74.601 298.641 74.3503 298.773 74.102 298.904C73.9895 298.963 73.8769 299.022 73.7656 299.081C73.5212 299.21 73.2794 299.338 73.04 299.465C72.9329 299.522 72.8262 299.579 72.7199 299.635C72.4812 299.762 72.2448 299.888 72.011 300.014C71.9653 300.038 71.9181 300.063 71.8725 300.087C68.5674 296.57 66.4719 291.105 65.4407 284.443C65.3391 283.788 65.2299 283.136 65.1157 282.486C69.1706 281.672 72.9176 279.523 75.8896 276.362C80.054 271.928 89.3922 268.102 101.214 265.173C103.863 264.518 108.179 258.948 114.95 248.594C116.35 248.864 117.776 249.076 119.232 249.228L117.611 254.137C117.199 255.387 117.891 256.693 119.157 257.052ZM60.4971 265.769L60.6331 265.73C61.892 265.379 63.1426 265.05 64.3627 264.748C68.0092 263.846 73.8434 256.4 80.7386 245.117L95.67 237.201C96.013 237.723 96.3718 238.226 96.7451 238.71C96.8345 238.826 96.9275 238.938 97.0187 239.052C97.1155 239.173 97.2109 239.297 97.3096 239.415C97.4895 239.631 97.6732 239.843 97.8591 240.051C97.871 240.064 97.882 240.078 97.8939 240.091C100.318 242.796 103.244 244.825 106.487 246.265C106.612 246.321 106.733 246.369 106.857 246.422C106.883 246.433 106.909 246.444 106.936 246.456C107.211 246.572 107.484 246.684 107.752 246.788C107.845 246.825 107.936 246.86 108.028 246.894C108.168 246.947 108.308 247 108.446 247.05C108.652 247.124 108.854 247.194 109.054 247.261C109.109 247.279 109.164 247.298 109.218 247.316C109.48 247.402 109.735 247.481 109.986 247.555C104.978 255.073 100.846 260.445 100.185 260.609C87.437 263.768 77.4438 267.861 72.3896 273.242C70.0901 275.688 67.2344 277.316 64.1912 277.9C63.2363 273.709 62.0074 269.657 60.4971 265.769ZM72.2368 249.625C70.8964 251.6 69.6101 253.389 68.4225 254.917C65.9551 258.094 63.9529 260.03 63.3326 260.184C61.8079 260.56 60.2375 260.981 58.662 261.431C58.0955 260.192 57.5021 258.97 56.8749 257.77L72.2368 249.625ZM192.243 242.87C187.914 251.201 178.202 260.025 161.08 268.478C157.887 270.054 154.462 271.749 150.822 273.555C145.012 276.437 138.691 279.583 131.938 282.951C119.367 289.222 105.909 295.961 92.4581 302.713C87.7504 305.076 83.3799 307.272 79.4581 309.245C78.3716 309.791 77.6363 310.161 76.6543 310.655L73.4198 304.554C83.8961 298.91 99.6082 291.218 123.752 280.363C124.35 280.093 124.944 279.825 125.535 279.557C125.604 279.526 125.672 279.495 125.741 279.464C126.19 279.261 126.636 279.058 127.081 278.855C127.358 278.729 127.633 278.603 127.908 278.477C128.077 278.401 128.245 278.323 128.413 278.246C164.745 261.607 184.559 248.834 192.978 239.943C193.113 240.896 192.854 241.695 192.243 242.87Z" fill="#7D7D7D"/>
</g>
<g clip-path="url(#clip10_2222_6384)">
<path d="M112.359 396.782L110.048 396.442C108.771 396.254 107.598 397.053 107.425 398.23C107.251 399.407 108.144 400.511 109.421 400.699L111.732 401.039C113.009 401.228 114.182 400.428 114.355 399.251C114.529 398.074 113.636 396.97 112.359 396.782Z" fill="#999999"/>
<path d="M130.841 399.501L128.531 399.161C127.253 398.972 126.081 399.772 125.907 400.949C125.734 402.126 126.626 403.23 127.904 403.418L130.214 403.758C131.492 403.946 132.664 403.147 132.838 401.97C133.011 400.793 132.119 399.689 130.841 399.501Z" fill="#999999"/>
<path d="M140.081 400.86L137.771 400.52C136.494 400.332 135.321 401.131 135.147 402.308C134.974 403.486 135.866 404.589 137.144 404.777L139.454 405.118C140.732 405.306 141.905 404.506 142.078 403.329C142.251 402.152 141.359 401.048 140.081 400.86Z" fill="#999999"/>
<path d="M121.601 398.141L119.291 397.801C118.013 397.613 116.84 398.412 116.667 399.59C116.494 400.767 117.386 401.87 118.664 402.059L120.974 402.399C122.251 402.587 123.424 401.788 123.598 400.61C123.771 399.433 122.878 398.33 121.601 398.141Z" fill="#999999"/>
<path d="M128.947 393.276C129.113 393.301 129.284 393.308 129.458 393.301L131.781 393.171C133.063 393.099 134.017 392.076 133.911 390.888C133.802 389.7 132.677 388.803 131.393 388.867L129.068 388.994C127.785 389.068 126.832 390.089 126.938 391.277C127.031 392.305 127.886 393.12 128.947 393.276Z" fill="#999999"/>
<path d="M110.359 394.314C110.525 394.338 110.697 394.346 110.87 394.339L113.193 394.209C114.476 394.137 115.429 393.114 115.323 391.926C115.217 390.738 114.086 389.845 112.805 389.904L110.48 390.032C109.197 390.106 108.244 391.127 108.35 392.315C108.444 393.342 109.301 394.158 110.359 394.314Z" fill="#999999"/>
<path d="M119.652 393.79C119.818 393.815 119.99 393.823 120.163 393.816L122.486 393.686C123.769 393.614 124.722 392.591 124.616 391.403C124.508 390.215 123.381 389.322 122.098 389.381L119.773 389.508C118.49 389.583 117.537 390.603 117.643 391.791C117.737 392.819 118.592 393.634 119.652 393.79Z" fill="#999999"/>
<path d="M116.734 410.135L118.923 410.929C119.087 410.986 119.251 411.028 119.418 411.052C120.476 411.208 121.532 410.674 121.918 409.717C122.362 408.611 121.744 407.358 120.536 406.919L118.35 406.125C117.149 405.703 115.799 406.23 115.353 407.337C114.909 408.444 115.527 409.696 116.734 410.135Z" fill="#999999"/>
<path d="M111.79 403.747L109.601 402.952C108.398 402.531 107.053 403.058 106.607 404.164C106.163 405.271 106.781 406.523 107.988 406.962L110.175 407.756C110.341 407.816 110.505 407.857 110.671 407.882C111.729 408.037 112.785 407.501 113.172 406.545C113.616 405.438 112.998 404.186 111.79 403.747Z" fill="#999999"/>
<path d="M129.288 410.091L127.099 409.297C125.901 408.874 124.551 409.402 124.105 410.508C123.661 411.615 124.279 412.868 125.486 413.307L127.673 414.101C127.839 414.16 128.003 414.202 128.169 414.226C129.227 414.382 130.284 413.846 130.67 412.889C131.114 411.782 130.496 410.53 129.288 410.091Z" fill="#999999"/>
<path d="M101.088 416.871L101.086 416.871C100.757 416.592 100.414 416.337 100.075 416.074L101.595 405.756C101.915 403.58 100.254 401.526 97.893 401.178L97.5556 401.128L99.1233 390.484C99.2967 389.307 98.4042 388.204 97.1266 388.015L83.2648 385.974C81.9872 385.786 80.8145 386.585 80.6411 387.762L79.0735 398.406L78.7361 398.356C76.375 398.009 74.1919 399.497 73.8715 401.672L72.3518 411.991C71.9516 412.145 71.5477 412.29 71.1516 412.462C61.3476 416.734 49.1021 425.609 46.4487 443.625L45.8784 447.497C45.8007 448.025 45.7674 448.555 45.7084 449.084L46.5161 448.535C51.8522 444.775 58.4687 443.233 65.1132 444.212L65.1202 444.213C71.6696 445.18 77.51 448.461 81.6338 453.474C81.7869 453.588 81.9208 453.721 82.0403 453.872C85.4299 458.199 90.3218 461.027 95.8177 461.838L95.8269 461.84C101.205 462.632 106.571 461.38 110.932 458.309L115.665 454.461L115.757 453.833C118.411 435.817 109.245 423.788 101.088 416.871ZM84.9477 390.572L94.1888 391.933L93.8753 394.061L91.5651 393.721C90.2874 393.533 89.1147 394.332 88.9413 395.51C88.768 396.687 89.6604 397.79 90.938 397.978L93.2482 398.319L92.9347 400.447L83.6936 399.086L84.9477 390.572ZM95.7595 413.322C90.0904 410.401 83.5499 409.438 77.277 410.6L78.4459 402.664L80.7561 403.004L94.6178 405.046L96.928 405.386L95.7595 413.322Z" fill="#999999"/>
<path d="M95.2013 466.096L95.1897 466.094C88.6427 465.128 82.8045 461.847 78.681 456.831C78.5301 456.718 78.3937 456.587 78.2763 456.437C74.8868 452.11 69.9924 449.282 64.4943 448.47L64.4897 448.469C59.1045 447.676 53.7336 448.931 49.3696 452.006L45.4158 454.699C45.4541 457.034 45.6716 459.371 46.0754 461.695L54.1279 507.828L89.8983 513.097L110.91 471.244C112.521 468.025 113.736 464.652 114.534 461.183L113.937 461.667C108.45 465.535 101.841 467.074 95.2013 466.096Z" fill="#999999"/>
</g>
<path d="M71.9996 621.625C52.6342 621.625 36.8809 635.888 36.8809 653.422C36.8809 670.955 52.6342 685.218 71.9996 685.218C91.3651 685.218 107.118 670.955 107.118 653.421C107.118 635.888 91.3651 621.625 71.9996 621.625ZM47.6499 640.46L57.6838 631.375C58.6646 630.487 60.2501 630.487 61.2309 631.375C62.2117 632.263 62.2117 633.699 61.2309 634.587L51.197 643.671C50.7079 644.114 50.0656 644.337 49.4236 644.337C48.7816 644.337 48.1393 644.114 47.6502 643.671C46.6691 642.783 46.6691 641.348 47.6499 640.46ZM47.6499 651.816L52.6669 647.273C53.6476 646.385 55.2331 646.385 56.2139 647.273C57.1947 648.161 57.1947 649.597 56.2139 650.485L51.197 655.027C50.7079 655.47 50.0656 655.693 49.4236 655.693C48.7816 655.693 48.1393 655.47 47.6502 655.027C46.6691 654.139 46.6691 652.704 47.6499 651.816ZM73.773 645.943L51.1967 666.383C50.7076 666.826 50.0653 667.049 49.4233 667.049C48.7813 667.049 48.139 666.826 47.6499 666.383C46.6691 665.495 46.6691 664.06 47.6499 663.172L70.2262 642.731C71.207 641.843 72.7925 641.843 73.7733 642.731C74.7538 643.619 74.7538 645.055 73.773 645.943ZM73.773 634.587L66.2476 641.4C65.7585 641.843 65.1162 642.066 64.4742 642.066C63.8319 642.066 63.1899 641.843 62.7008 641.4C61.72 640.512 61.72 639.077 62.7008 638.189L70.2262 631.375C71.207 630.487 72.7925 630.487 73.7733 631.375C74.7538 632.263 74.7538 633.699 73.773 634.587ZM86.3155 634.587L83.807 636.858C83.3179 637.301 82.6756 637.523 82.0336 637.523C81.3916 637.523 80.7493 637.301 80.2602 636.858C79.2794 635.97 79.2794 634.534 80.2602 633.646L82.7687 631.375C83.7495 630.487 85.335 630.487 86.3158 631.375C87.2963 632.263 87.2962 633.699 86.3155 634.587Z" fill="#999999"/>
<path d="M122.169 653.424C122.169 628.377 99.663 608 71.9995 608C44.3359 608 21.8301 628.377 21.8301 653.424C21.8301 675.361 39.0935 693.712 61.9655 697.932V724.896C61.9655 725.561 61.3686 726.102 60.6335 726.102H50.3637C47.0777 726.102 44.4062 728.52 44.4062 731.496V736.606C44.4062 739.581 47.0777 742 50.3637 742H93.6349C96.921 742 99.5925 739.581 99.5925 736.606V731.496C99.5925 728.52 96.921 726.102 93.6349 726.102H83.3654C82.6303 726.102 82.0334 725.561 82.0334 724.896V697.932C104.906 693.712 122.169 675.361 122.169 653.424ZM71.9995 689.763C49.8697 689.763 31.864 673.46 31.864 653.424C31.864 633.388 49.8697 617.085 71.9995 617.085C94.1292 617.085 112.135 633.387 112.135 653.424C112.135 673.46 94.1292 689.763 71.9995 689.763Z" fill="#999999"/>
<path d="M475.796 960.929C477.99 960.929 479.776 959.442 479.776 957.616C479.776 955.79 477.99 954.305 475.796 954.305C473.602 954.305 471.816 955.79 471.816 957.616C471.816 959.442 473.602 960.929 475.796 960.929ZM475.796 956.137C476.776 956.137 477.574 956.8 477.574 957.616C477.574 958.432 476.777 959.096 475.796 959.096C474.816 959.096 474.019 958.432 474.019 957.616C474.019 956.8 474.816 956.137 475.796 956.137Z" fill="#999999"/>
<path d="M475.796 970.781C477.99 970.781 479.776 969.295 479.776 967.469C479.776 965.643 477.99 964.156 475.796 964.156C473.602 964.156 471.816 965.643 471.816 967.469C471.816 969.295 473.602 970.781 475.796 970.781ZM475.796 965.989C476.776 965.989 477.574 966.652 477.574 967.468C477.574 968.284 476.777 968.948 475.796 968.948C474.816 968.948 474.019 968.284 474.019 967.468C474.019 966.652 474.816 965.989 475.796 965.989Z" fill="#999999"/>
<path d="M475.796 980.624C477.99 980.624 479.776 979.138 479.776 977.313C479.776 975.486 477.99 974 475.796 974C473.602 974 471.816 975.487 471.816 977.313C471.816 979.138 473.602 980.624 475.796 980.624ZM475.796 975.832C476.776 975.832 477.574 976.496 477.574 977.313C477.574 978.128 476.777 978.792 475.796 978.792C474.816 978.792 474.019 978.128 474.019 977.313C474.019 976.496 474.816 975.832 475.796 975.832Z" fill="#999999"/>
<path d="M475.796 916.929C477.99 916.929 479.776 915.443 479.776 913.617C479.776 911.791 477.99 910.305 475.796 910.305C473.602 910.305 471.816 911.791 471.816 913.617C471.816 915.443 473.602 916.929 475.796 916.929ZM475.796 912.138C476.776 912.138 477.574 912.801 477.574 913.617C477.574 914.433 476.777 915.096 475.796 915.096C474.816 915.096 474.019 914.433 474.019 913.617C474.019 912.801 474.816 912.138 475.796 912.138Z" fill="#999999"/>
<path d="M475.796 926.78C477.99 926.78 479.776 925.295 479.776 923.469C479.776 921.642 477.99 920.156 475.796 920.156C473.602 920.156 471.816 921.642 471.816 923.469C471.816 925.295 473.602 926.78 475.796 926.78ZM475.796 921.988C476.776 921.988 477.574 922.652 477.574 923.468C477.574 924.284 476.777 924.947 475.796 924.947C474.816 924.947 474.019 924.284 474.019 923.468C474.019 922.652 474.816 921.988 475.796 921.988Z" fill="#999999"/>
<path d="M475.796 936.632C477.99 936.632 479.776 935.146 479.776 933.32C479.776 931.493 477.99 930.008 475.796 930.008C473.602 930.008 471.816 931.494 471.816 933.32C471.816 935.146 473.602 936.632 475.796 936.632ZM475.796 931.84C476.776 931.84 477.574 932.504 477.574 933.319C477.574 934.135 476.777 934.799 475.796 934.799C474.816 934.799 474.019 934.135 474.019 933.319C474.019 932.504 474.816 931.84 475.796 931.84Z" fill="#999999"/>
<path d="M475.796 990.475C477.99 990.475 479.776 988.99 479.776 987.164C479.776 985.338 477.99 983.852 475.796 983.852C473.602 983.852 471.816 985.338 471.816 987.164C471.816 988.99 473.602 990.475 475.796 990.475ZM475.796 985.684C476.776 985.684 477.574 986.348 477.574 987.163C477.574 987.979 476.777 988.642 475.796 988.642C474.816 988.642 474.019 987.979 474.019 987.163C474.019 986.348 474.816 985.684 475.796 985.684Z" fill="#999999"/>
<path d="M475.796 1000.33C477.99 1000.33 479.776 998.841 479.776 997.015C479.776 995.189 477.99 993.703 475.796 993.703C473.602 993.703 471.816 995.19 471.816 997.015C471.816 998.841 473.602 1000.33 475.796 1000.33ZM475.796 995.535C476.776 995.535 477.574 996.199 477.574 997.015C477.574 997.831 476.777 998.494 475.796 998.494C474.816 998.494 474.019 997.831 474.019 997.015C474.019 996.199 474.816 995.535 475.796 995.535Z" fill="#999999"/>
<path d="M449.715 972.652C449.883 972.731 450.071 972.773 450.258 972.773C450.653 972.773 451.021 972.595 451.217 972.31L460.962 958.066C461.262 957.626 461.077 957.065 460.549 956.815C460.384 956.736 460.195 956.695 460.005 956.695C459.609 956.695 459.242 956.872 459.048 957.158L449.302 971.401C449.002 971.841 449.187 972.402 449.715 972.652Z" fill="#999999"/>
<path d="M507.955 957.158C507.76 956.873 507.392 956.695 506.996 956.695C506.806 956.695 506.619 956.737 506.453 956.816C506.197 956.938 506.014 957.134 505.936 957.37C505.858 957.607 505.896 957.853 506.042 958.066L515.787 972.309C515.983 972.595 516.35 972.772 516.745 972.772C516.934 972.772 517.122 972.731 517.288 972.652C517.544 972.53 517.727 972.333 517.805 972.097C517.883 971.86 517.846 971.614 517.7 971.401L507.955 957.158Z" fill="#999999"/>
<path d="M560.583 960.317L553.476 947.125C553.203 946.616 525.976 896.036 516.161 877.864C516.142 877.827 516.122 877.785 516.102 877.74C515.976 877.463 515.765 877 515.072 877H478.722C461.07 877.001 452.109 877.001 452.085 877.002C451.575 877.002 451.205 877.189 451.016 877.542L406.42 960.317C406.299 960.54 406.29 960.789 406.395 961.018C406.5 961.247 406.706 961.428 406.974 961.528L429.295 969.858C429.56 969.957 429.867 969.964 430.136 969.878C430.41 969.791 430.628 969.62 430.749 969.396L446.418 940.315L446.419 948.531L437.361 1009.97C437.322 1010.23 437.42 1010.49 437.629 1010.69C437.839 1010.89 438.14 1011 438.453 1011H528.55C528.866 1011 529.167 1010.89 529.374 1010.69C529.584 1010.49 529.682 1010.23 529.643 1009.97L520.585 948.545V940.314L536.254 969.397C536.374 969.62 536.591 969.791 536.867 969.879C537.137 969.965 537.446 969.958 537.71 969.858L560.031 961.529C560.583 961.321 560.831 960.777 560.583 960.317ZM434.767 957.459L429.19 967.811L408.879 960.231L414.456 949.879L434.767 957.459ZM437.712 951.993L435.668 955.787L415.356 948.206L417.401 944.413L437.712 951.993ZM479.823 882.422V878.831H487.179V882.422L479.823 882.422ZM558.123 960.231L537.813 967.811L532.235 957.459L552.547 949.879L558.123 960.231ZM551.647 948.206L531.335 955.787L529.291 951.993L549.603 944.413L551.647 948.206ZM489.757 940.321V947.678H477.245V940.321H489.757ZM482.401 949.51V1009.17H439.696L448.492 949.51H482.401ZM518.384 940.321V947.678H507.127V940.321H518.384ZM504.925 940.321V947.678H491.959V940.321H504.925ZM485.49 906.2L494.953 894.906V906.2H485.49ZM515.103 898.735C515.135 899.105 518.232 935.72 518.239 935.814L518.436 938.488H484.602V908.032H496.054C496.661 908.032 497.154 907.621 497.154 907.116V892.907H507.848C508.454 892.907 508.948 892.496 508.948 891.99V878.831H514.269L548.7 942.741L528.388 950.321C527.667 948.983 520.499 935.691 520.218 935.152L517.299 898.613C517.149 897.295 514.979 897.267 515.103 898.735ZM457.931 878.831V891.99C457.931 892.496 458.425 892.907 459.032 892.907H469.725V907.116C469.725 907.621 470.219 908.032 470.826 908.032H482.277V938.488H448.806C448.835 937.936 448.949 935.685 448.954 934.9L451.842 898.735C451.968 897.245 449.822 897.231 449.646 898.613C447.008 931.719 446.756 934.928 446.732 935.246L438.612 950.321L418.3 942.741L452.733 878.831H457.931ZM471.928 906.2V894.906L481.392 906.2H471.928ZM483.44 905.442L461.141 878.831H477.621V883.338C477.621 883.844 478.115 884.254 478.721 884.254H488.28C488.887 884.254 489.381 883.844 489.381 883.338V878.831H505.737L483.44 905.442ZM460.133 891.074V880.831L468.716 891.074H460.133ZM448.619 947.678V940.321H475.043V947.678H448.619ZM484.602 949.51H518.511L527.307 1009.17H484.602V949.51ZM498.164 891.074L506.747 880.831V891.074H498.164Z" fill="#999999"/>
<g clip-path="url(#clip11_2222_6384)">
<path d="M356.769 868.697C356.633 868.276 343.113 826.53 341.635 821.814C340.12 816.978 337.038 800.967 336.796 788.867C336.78 788.078 336.767 787.218 336.752 786.298C336.528 772.171 336.105 746.005 325.534 732.674L325.076 728.164C324.978 727.202 323.979 726.517 322.844 726.632L278.255 731.162C277.12 731.277 276.279 732.149 276.377 733.111L276.835 737.621C269.159 752.806 274.008 778.522 276.629 792.406C276.8 793.31 276.959 794.154 277.102 794.93C279.298 806.832 279.5 823.136 278.987 828.178C278.488 833.095 273.64 876.706 273.592 877.147C273.502 877.953 274.071 878.688 274.968 878.928C275.236 878.999 281.673 880.662 293.994 879.41C306.255 878.165 313.184 875.181 313.473 875.055C314.275 874.703 314.739 873.962 314.624 873.215C314.554 872.768 307.665 828.348 305.972 814.14C304.984 805.853 305.243 790.344 305.628 778.888C308.309 790.033 311.681 805.171 312.381 813.489C313.579 827.747 315.763 872.646 315.785 873.097C315.821 873.852 316.425 874.485 317.282 874.668C317.59 874.733 324.977 876.263 337.239 875.017C349.561 873.766 355.531 870.842 355.779 870.719C356.61 870.304 357.019 869.469 356.769 868.697ZM321.29 731.77L303.105 733.618L302.957 732.169L321.143 730.322L321.29 731.77ZM298.848 732.587L298.995 734.035L280.81 735.882L280.663 734.434L298.848 732.587ZM301.867 814.608C303.4 827.472 309.163 864.922 310.328 872.46C307.853 873.328 302.079 875.072 293.64 875.93C285.618 876.744 280.304 876.238 277.864 875.867C278.724 868.12 282.649 832.772 283.097 828.364C283.624 823.178 283.424 806.446 281.178 794.275C281.034 793.495 280.874 792.647 280.702 791.738C278.359 779.327 273.538 753.792 280.344 739.447L286.5 738.821L285.908 746.936C285.838 747.904 286.702 748.711 287.839 748.739C287.943 748.741 288.046 748.737 288.146 748.727C289.147 748.625 289.961 747.916 290.025 747.036L290.654 738.399L299.35 737.516L302.113 764.72C301.968 767.342 300.188 800.519 301.867 814.608ZM336.885 871.537C328.443 872.394 322.435 871.846 319.84 871.494C319.465 863.876 317.579 826.032 316.494 813.122C315.305 798.983 306.891 766.842 306.222 764.303L303.458 737.098L312.154 736.215L314.507 744.549C314.746 745.397 315.686 745.929 316.687 745.827C316.788 745.817 316.889 745.8 316.99 745.777C318.098 745.522 318.783 744.557 318.519 743.623L316.309 735.793L322.464 735.168C332.014 747.851 332.427 773.834 332.628 786.463C332.642 787.388 332.656 788.251 332.672 789.044C332.919 801.418 336.088 817.849 337.647 822.822C338.972 827.051 349.925 860.886 352.326 868.302C350.007 869.158 344.905 870.722 336.885 871.537Z" fill="#999999"/>
</g>
<g clip-path="url(#clip12_2222_6384)">
<path d="M346.951 214.003C346.944 213.892 346.844 213.871 346.872 213.925C345.38 212.43 343.562 211.244 340.92 210.401C339.125 209.781 336.99 209.332 334.342 209.066C332.043 208.777 329.395 208.511 326.244 208.577C322.559 208.531 318.904 208.929 315.299 210.066C315.299 210.066 315.299 210.066 315.125 210.078C309.446 211.654 304.17 211.418 300.828 208.674C299.525 207.574 284.617 194.62 279.223 190.083C278.659 189.527 277.921 188.983 277.367 188.575C260.223 173.692 253.577 168.795 250.886 170.464C250.382 170.796 249.879 171.127 249.047 171.778C247.896 172.897 246.754 174.164 245.624 175.578C242.734 179.49 240.932 183.923 241.09 188.816C241.231 190.887 242.409 192.739 244.42 193.94C250.777 199.748 254.627 207.362 255.161 215.202L256.279 231.622C256.34 232.51 257.078 233.054 258.125 232.983L265.106 232.507C266.153 232.436 266.81 231.797 266.75 230.909L264.815 202.507C267.923 204.376 271.061 206.689 273.871 209.321C274.055 209.457 274.25 209.741 274.455 210.173C275.029 210.877 275.613 211.729 276.371 212.569C278.472 215.101 280.563 217.485 282.829 219.857C285.279 222.365 287.524 224.441 289.739 226.074C293.626 229.078 297.062 230.628 300.019 230.278C300.194 230.266 300.194 230.266 300.368 230.254C303.859 230.016 308.745 229.683 314.3 228.859C314.474 228.847 314.823 228.823 314.998 228.812C315.172 228.8 315.347 228.788 315.521 228.776C315.696 228.764 315.87 228.752 316.045 228.74C320.388 228.147 324.895 227.394 329.392 226.494C329.741 226.47 329.916 226.458 330.255 226.286C332.329 225.848 334.403 225.409 336.477 224.971C336.826 224.947 337.165 224.775 337.514 224.752C339.588 224.313 341.652 223.727 343.716 223.14C344.065 223.116 344.23 222.957 344.569 222.785C348.308 221.044 349.421 216.807 346.951 214.003ZM263.159 229.668L259.669 229.905L258.651 214.965C258.197 208.308 255.465 201.658 250.884 196.174C251.417 196.286 251.777 196.411 252.136 196.535C255.183 197.516 258.076 198.805 261.164 200.378L263.159 229.668ZM300.332 227.136C300.157 227.147 299.983 227.159 299.808 227.171C298.073 227.438 295.365 226.285 292.032 223.688C289.991 222.044 287.756 220.116 285.49 217.744C283.409 215.508 281.144 213.136 279.227 210.74C278.469 209.9 277.885 209.048 277.311 208.344C276.932 207.924 276.737 207.64 276.552 207.504L276.368 207.368C269.632 201.139 261.795 196.769 253.894 194.037C253.002 193.801 252.273 193.405 251.381 193.168C251.206 193.18 251.021 193.044 250.847 193.056C249.77 192.684 248.528 192.471 247.451 192.098C247.091 191.974 246.732 191.85 246.189 191.59C245.091 190.922 244.323 189.934 244.242 188.75C244.473 184.425 245.967 180.608 248.537 177.163C249.504 175.908 250.655 174.79 251.642 173.831C251.971 173.511 252.135 173.351 252.474 173.18C252.833 173.304 253.202 173.576 253.746 173.836C255.028 174.641 256.864 175.853 259.264 177.622C263.325 180.614 268.524 184.867 275.035 190.368C275.599 190.924 276.327 191.32 276.891 191.877C282.284 196.413 297.193 209.367 298.495 210.468C302.023 213.348 306.456 214.087 311.507 213.594C309.675 217.583 308.746 221.956 308.873 226.405C305.393 226.791 302.6 226.981 300.332 227.136ZM343.505 220.034C343.146 219.91 342.981 220.069 342.807 220.081C340.394 220.691 338.155 221.29 335.742 221.9C334.88 222.107 333.843 222.327 332.98 222.534C331.43 222.937 330.043 223.18 328.483 223.435C327.271 223.666 326.234 223.885 325.023 224.116C323.637 224.359 322.425 224.59 321.039 224.833C319.827 225.064 318.78 225.136 317.569 225.367C315.834 225.634 313.924 225.913 312.189 226.179C312.215 221.422 313.309 216.889 315.501 213.024C315.675 213.013 316.014 212.841 316.189 212.829C319.454 211.864 322.76 211.49 326.096 211.56C328.375 211.553 330.489 211.706 332.254 211.883C336.493 212.338 339.705 213.159 341.706 214.212C342.434 214.608 342.988 215.016 343.541 215.424C343.541 215.424 343.541 215.424 343.726 215.56C343.91 215.696 343.91 215.696 344.095 215.833L344.28 215.969C345.418 217.228 345.025 219.187 343.505 220.034Z" fill="#7D7D7D"/>
</g>
<g clip-path="url(#clip13_2222_6384)">
<path d="M503.129 214.396C499.234 215.573 496.119 217.707 493.705 220.152L420.016 192.606C419.014 192.228 417.472 192.828 416.932 193.807L415.853 195.763C413.584 199.964 415.355 204.743 419.763 206.499L455.055 219.616C456.36 220.061 457.125 221.484 456.777 222.817L452.173 242.489C448.802 243.156 445.193 244.867 442.174 247.179C435.294 252.713 432.171 261.271 434.677 268.407C438.667 279.788 454.29 283.079 465.937 274.521C472.802 269.454 476.116 261.252 474.422 254.138C473.064 249.137 469.831 245.602 465.725 243.913L469.047 229.287C469.522 227.197 472.002 225.864 474.007 226.619L488.041 231.911C487.379 236.623 488.545 241.269 491.778 244.803C496.668 250.428 505.449 251.895 513.462 248.962C527.022 243.961 532.889 229.113 525.593 219.509C520.099 213.752 511.237 211.64 503.129 214.396ZM456.877 266.096C453.365 267.985 449.435 267.118 447.809 264.095C446.183 261.072 447.626 257.315 451.139 255.426C454.651 253.537 458.581 254.404 460.207 257.427C461.833 260.45 460.39 264.207 456.877 266.096ZM510.6 237.202C507.088 239.092 503.158 238.225 501.532 235.201C499.906 232.178 501.349 228.422 504.862 226.532C508.374 224.643 512.304 225.51 513.93 228.534C515.349 231.668 513.906 235.424 510.6 237.202Z" fill="#7D7D7D"/>
<path d="M471.75 202.613C473.055 203.058 474.708 202.169 475.056 200.835L481.544 173.272C482.382 169.382 480.263 165.937 476.651 164.669C475.951 164.358 472.308 164.024 472.308 164.024C471.194 163.935 469.844 164.891 469.606 165.936L462.614 196.522C462.265 197.856 463.031 199.278 464.335 199.723L471.75 202.613Z" fill="#7D7D7D"/>
</g>
<path d="M955.85 813.771C954.918 808.978 947.27 806.333 928.774 804.223C925.536 803.855 922.032 803.528 918.369 803.232C914.429 783.677 895.822 768.812 873.475 768.812C851.126 768.812 832.505 783.677 828.568 803.235C824.91 803.53 821.411 803.855 818.176 804.223C798.365 806.484 791 809.357 791 814.826C791 817.263 793.364 819.241 796.278 819.241H950.669C950.688 819.239 950.704 819.241 950.722 819.241C953.636 819.241 956 817.263 956 814.826C956 814.462 955.947 814.109 955.85 813.771Z" fill="#999999"/>
<path d="M901.185 824.336C893.864 824.336 881.21 824.36 877.603 830.854H869.348C865.741 824.36 853.087 824.336 845.767 824.336C827.846 824.336 827.846 832.297 827.846 839.322C827.846 847.879 833.889 853.194 843.619 853.194C853.552 853.194 869.858 844.862 870.32 835.268H876.629C877.094 844.862 893.4 853.194 903.333 853.194C913.062 853.194 919.106 847.879 919.106 839.322C919.103 832.299 919.103 824.336 901.185 824.336Z" fill="#999999"/>
<g clip-path="url(#clip14_2222_6384)">
<path d="M734.791 827.371L729.729 823.104L728.128 821.754L708.915 805.558C708.032 804.814 706.599 804.814 705.714 805.558C704.831 806.304 704.831 807.513 705.714 808.257L724.927 824.453L720.122 828.501L700.912 812.307C700.029 811.561 698.596 811.561 697.71 812.307C696.825 813.053 696.825 814.26 697.71 815.006L716.921 831.2L712.117 835.25L692.906 819.056C692.021 818.31 690.59 818.31 689.705 819.056C688.819 819.8 688.819 821.008 689.705 821.755L708.915 837.949L704.113 841.997L684.903 825.803C684.017 825.056 682.584 825.056 681.701 825.803C680.816 826.547 680.816 827.755 681.701 828.501L700.912 844.695L696.11 848.745L676.899 832.549C676.014 831.805 674.581 831.805 673.698 832.549C672.812 833.295 672.812 834.504 673.698 835.248L692.908 851.444L691.971 852.234H684.239L668.893 839.298C668.008 838.552 666.575 838.552 665.69 839.298C664.807 840.044 664.807 841.25 665.69 841.997L677.836 852.234H673.034V856.284L660.888 846.047C660.004 845.3 658.571 845.3 657.686 846.047C656.803 846.791 656.803 847.999 657.686 848.745L673.034 861.681V868.197L672.097 868.987L652.884 852.793C652.001 852.047 650.568 852.047 649.683 852.793C648.8 853.538 648.8 854.746 649.683 855.492L668.896 871.686L664.091 875.736L644.878 859.54C643.993 858.796 642.562 858.796 641.677 859.54C640.792 860.286 640.792 861.494 641.677 862.241L660.89 878.435L656.085 882.483L636.875 866.289C635.989 865.542 634.558 865.542 633.673 866.289C632.788 867.035 632.788 868.243 633.673 868.987L652.884 885.183L648.079 889.231L628.869 873.037C627.984 872.291 626.55 872.291 625.667 873.037C624.782 873.782 624.782 874.99 625.667 875.736L644.878 891.93L640.076 895.98L620.865 879.784C619.98 879.04 618.547 879.04 617.664 879.784C616.779 880.53 616.779 881.738 617.664 882.483L638.475 900.028L643.538 904.296C645.605 906.038 648.356 907 651.281 907C654.209 907 656.959 906.038 659.026 904.296L734.791 840.428C736.861 838.685 738 836.364 738 833.899C738 831.433 736.861 829.116 734.791 827.371Z" fill="#999999"/>
</g>
</g>
<rect x="1.5" y="1.5" width="1021" height="1021" rx="248.5" stroke="#999999" stroke-width="3"/>
<defs>
<linearGradient id="paint0_linear_2222_6384" x1="818" y1="327" x2="818" y2="667" gradientUnits="userSpaceOnUse">
<stop offset="0.177083" stop-color="#E51E5A"/>
<stop offset="0.651042" stop-color="#999999"/>
</linearGradient>
<clipPath id="clip0_2222_6384">
<rect width="1024" height="1024" rx="250" fill="white"/>
</clipPath>
<clipPath id="clip1_2222_6384">
<rect width="113" height="111" fill="white" transform="translate(894 318)"/>
</clipPath>
<clipPath id="clip2_2222_6384">
<rect width="199.486" height="174.682" fill="white" transform="translate(889.023 213.438) rotate(-126.989)"/>
</clipPath>
<clipPath id="clip3_2222_6384">
<rect width="179" height="158" fill="white" transform="translate(538)"/>
</clipPath>
<clipPath id="clip4_2222_6384">
<rect width="159" height="121" fill="white" transform="translate(801 195.117) rotate(-13.8693)"/>
</clipPath>
<clipPath id="clip5_2222_6384">
<rect width="230" height="199" fill="white" transform="translate(22 792.352) rotate(-1.33416)"/>
</clipPath>
<clipPath id="clip6_2222_6384">
<rect width="134" height="108" fill="white" transform="translate(446 728.375) rotate(-18.4355)"/>
</clipPath>
<clipPath id="clip7_2222_6384">
<rect width="88" height="52" fill="white" transform="translate(862 464)"/>
</clipPath>
<clipPath id="clip8_2222_6384">
<rect width="132" height="105" fill="white" transform="translate(283.203 48.6484) rotate(-14.0924)"/>
</clipPath>
<clipPath id="clip9_2222_6384">
<rect width="146" height="140" fill="white" transform="translate(27 227.391) rotate(-27.9322)"/>
</clipPath>
<clipPath id="clip10_2222_6384">
<rect width="140" height="129" fill="white" transform="translate(30.7969 374) rotate(8.37832)"/>
</clipPath>
<clipPath id="clip11_2222_6384">
<rect width="176" height="149.08" fill="white" transform="translate(213 737.789) rotate(-5.80042)"/>
</clipPath>
<clipPath id="clip12_2222_6384">
<rect width="105" height="89" fill="white" transform="translate(239 158.133) rotate(-3.89668)"/>
</clipPath>
<clipPath id="clip13_2222_6384">
<rect width="122" height="105" fill="white" transform="translate(389 203.789) rotate(-28.2727)"/>
</clipPath>
<clipPath id="clip14_2222_6384">
<rect width="121" height="102" fill="white" transform="translate(617 805)"/>
</clipPath>
</defs>
</svg>
